<?xml version="1.0" encoding="utf-8"?>
<!DOCTYPE svg PUBLIC "-//W3C//DTD SVG 1.0//EN" "http://www.w3.org/TR/2001/REC-SVG-20010904/DTD/svg10.dtd">
<svg version="1.0" xmlns="http://www.w3.org/2000/svg" width="600px" height="600px" viewBox="0 0 600 600" preserveAspectRatio="xMidYMid meet">
 <g fill="#ffffff">
  <path d="M0 300 l0 -300 300 0 300 0 0 300 0 300 -300 0 -300 0 0 -300z m117.75 263.25 c1.40 -0.40 2.95 -1.05 3.50 -1.50 0.70 -0.50 0.30 -0.45 -1.25 0.25 -2.95 1.30 -11.15 1.40 -14.70 0.20 -4.90 -1.65 -9.55 -7.95 -11.55 -15.50 -1.80 -6.75 -2.10 -20.45 -0.70 -28.70 0.85 -4.85 2.90 -9.80 5.10 -12.30 3.05 -3.50 6.05 -4.70 11.65 -4.70 4.05 0 4.85 0.15 7.60 1.55 3.45 1.70 5.45 3.95 7.40 8.15 l1.30 2.80 2.35 -4.85 2.40 -4.90 -3.55 -0.30 c-2 -0.15 -5.65 -1.05 -8.30 -1.95 -8.55 -2.95 -15.60 -2.05 -22.15 2.95 -11.05 8.35 -15.50 23.15 -11.60 38.70 2.20 8.65 8.90 16.70 16 19.30 5.85 2.10 11 2.35 16.50 0.80z m123.30 0.20 c1.30 -0.30 2.75 -0.85 3.25 -1.25 0.75 -0.55 0.50 -0.50 -1.05 0.10 -2.95 1.20 -12.75 0.80 -15.50 -0.65 -2.75 -1.45 -6.55 -5.65 -8.05 -8.85 -2.90 -6.30 -3.40 -9.60 -3.40 -22.05 0 -10.25 0.15 -11.90 1.10 -15.45 1.40 -5.05 2.80 -7.75 5.25 -10.35 2.95 -3.05 5.70 -4.10 10.85 -4.15 6.35 0 10 1.90 13.45 6.95 0.75 1.10 1.70 2.85 2.10 3.85 l0.70 1.85 2.55 -5 2.55 -4.95 -3.05 0 c-2.10 0 -4.45 -0.50 -7.40 -1.50 -6.90 -2.35 -10.25 -2.75 -14.40 -1.80 -5.15 1.15 -8.30 2.95 -12.50 7.25 -6.75 6.85 -9.75 14.45 -9.70 24.80 0.05 9.15 2.20 16.15 6.85 22.20 2.20 2.90 6.90 6.60 9.85 7.90 4.70 2 10.50 2.35 16.55 1.10z m58.30 -2.85 l-1.85 -1.90 0 -11.60 0 -11.60 12.55 -20.10 c6.90 -11.10 13.70 -21.60 15.10 -23.40 1.35 -1.80 2.65 -3.45 2.90 -3.75 0.20 -0.25 -2.35 0.35 -5.70 1.45 -3.35 1.05 -6.35 2 -6.70 2.05 -0.40 0.15 -0.25 0.80 0.40 2.10 1.60 3 1.10 7.95 -1.20 12.50 -2.40 4.75 -13.80 22.65 -14.40 22.65 -0.25 0 -0.45 0.40 -0.45 0.90 -0.05 1.55 -1.25 2.60 -3.05 2.60 -1.65 0 -1.90 -0.30 -9.80 -12.30 -9.20 -13.90 -9.45 -14.55 -6.55 -17.55 l1.60 -1.65 -7.95 0 -7.95 0 2.55 2.65 c1.45 1.45 6.80 9.10 12.10 17.25 l9.55 14.70 0 11.55 0 11.55 -1.85 1.90 -1.85 1.90 7.20 0 7.20 0 -1.85 -1.90z m62.50 0.65 l-1.35 -1.30 0 -28.70 0 -28.75 6.15 0 c7.40 0 9.65 0.85 12.10 4.50 l1.50 2.25 2.10 -4.10 2.10 -4.15 -26.95 0 c-14.85 0 -27 0.15 -27 0.40 0 0.20 0.75 2 1.60 3.95 1.60 3.55 2.40 4.50 2.40 2.85 0 -1.45 3.20 -4.05 6 -4.90 2.65 -0.80 9.65 -1.10 11.90 -0.50 l1.10 0.30 0 28.40 0 28.45 -1.60 1.25 -1.65 1.30 6.50 0 6.50 0 -1.40 -1.25z m104.70 -0.10 c-1.80 -2.50 -2.05 -5.30 -2.05 -28 l0 -22.15 1.65 0 c1.60 0 1.70 0.10 2.75 3.40 0.60 1.90 1.10 4.60 1.10 6 0 2.15 0.15 2.60 0.90 2.60 0.70 0 2.15 3.85 7.55 19.75 3.70 10.85 6.85 19.75 7 19.75 0.15 0 3.55 -8.95 7.50 -19.90 3.95 -10.90 8.10 -22.25 9.20 -25.20 l1.95 -5.40 1.70 0 1.70 0 0 4.70 c0 2.60 -0.20 5.30 -0.50 6 -0.30 0.85 -0.30 1.30 0 1.30 0.30 0 0.50 6.60 0.50 17.85 l0 17.85 -1.60 1.35 -1.65 1.40 6.45 0.05 6.50 0 -1.35 -1.40 -1.35 -1.40 0 -27.25 0 -27.20 1.95 -2.15 1.95 -2.10 -8.55 0 -8.55 0 1.85 1.90 c1.10 1.15 1.85 2.40 1.85 3.10 0 1.35 -12.30 35.95 -13.05 36.75 -0.25 0.25 -0.45 0.90 -0.45 1.45 0 0.60 -0.40 2 -0.85 3.15 -0.80 1.90 -1.10 2.15 -2.50 2.15 l-1.55 0 -2.90 -8.60 c-1.55 -4.75 -4.75 -14.15 -7 -20.85 -2.30 -6.70 -4.20 -12.95 -4.20 -13.85 0 -1.30 0.45 -2 2.10 -3.40 l2.10 -1.80 -8.50 0 -8.45 0.05 1.90 1.65 1.90 1.70 -0.15 25.45 c-0.15 28.15 -0.10 27.50 -3.50 31.05 l-1.60 1.60 4.60 0 4.65 0 -1 -1.35z m-274.25 -2.35 c-1.20 -1.75 -2.45 -4.05 -2.80 -5.05 l-0.60 -1.85 -1.70 2.50 c-3.55 5.35 -6 6.15 -18.85 6.50 l-9.85 0.20 0.10 -15.40 0.15 -15.45 8.35 -0.15 8.35 -0.10 1.75 2.30 1.80 2.35 0 -5.40 0 -5.40 -1.75 2.35 -1.80 2.30 -8.45 0 -8.50 0 0 -12.95 0 -12.90 5.90 -0.35 c7.30 -0.45 14.40 0.30 17.40 1.70 1.45 0.75 2.70 1.85 3.75 3.55 l1.60 2.45 2 -3.65 c1.05 -1.95 2.30 -4 2.70 -4.45 0.75 -0.85 -0.30 -0.90 -21.60 -0.90 l-22.40 0 2 1.90 2 1.85 -0.25 11.85 -0.20 11.85 -1.85 0.35 c-3.15 0.55 -3.50 1.15 -0.65 1.20 l2.60 0 0 14.65 0 14.70 -1.85 1.30 -1.90 1.35 23.40 0 23.35 0 -2.20 -3.20z m249.70 0.60 c-1.10 -1.45 -2.40 -3.75 -2.90 -5.05 l-0.95 -2.45 -1.60 2.50 c-3.35 5.25 -7.50 6.60 -20.40 6.60 l-8.15 0 0 -15.50 0 -15.50 8.45 0 8.50 0 1.65 2.30 1.65 2.30 0.15 -2.50 c0.10 -1.40 0.10 -3.85 0 -5.40 l-0.15 -2.80 -1.65 2.30 -1.65 2.30 -8.50 0 -8.45 0 0 -12.95 0 -12.90 5.90 -0.35 c6.10 -0.35 13.75 0.20 16.35 1.20 1.80 0.70 4.10 2.75 5.05 4.65 0.85 1.60 1.50 1.75 1.95 0.40 0.15 -0.50 1.20 -2.35 2.25 -4 1.10 -1.70 2 -3.20 2 -3.30 0 -0.15 -9.95 -0.25 -22.10 -0.25 l-22.15 0.05 1.90 1.50 1.85 1.55 0 12.15 0 12.15 -1.90 0.35 c-3.25 0.55 -3.65 1.25 -0.70 1.25 l2.60 0 0 14.75 c0 8.10 -0.15 14.75 -0.35 14.75 -0.25 0.05 -1.05 0.60 -1.90 1.25 l-1.50 1.25 23.35 0 23.40 0 -2 -2.60z m-317 -0.65 c0.95 -0.95 1.60 -1.75 1.45 -1.75 -0.15 0 -1 0.80 -1.95 1.75 -0.95 0.95 -1.60 1.75 -1.45 1.75 0.15 0 1 -0.80 1.95 -1.75z m4.05 -6.70 c0.55 -1.55 1.15 -4.05 1.25 -5.55 0.15 -2.65 0.15 -2.60 -0.55 0.90 -0.35 2 -1.25 4.90 -1.95 6.50 -0.70 1.55 -0.95 2.40 -0.55 1.90 0.40 -0.55 1.20 -2.25 1.80 -3.75z m124.70 -3.10 c0.45 -1.85 0.75 -3.80 0.65 -4.30 -0.10 -0.50 -0.55 0.90 -1 3.10 -0.45 2.20 -0.95 4.45 -1.15 5 -0.25 0.80 -0.25 0.85 0.20 0.25 0.25 -0.40 0.85 -2.25 1.30 -4.05z m48.30 -51 c2.35 -0.80 4.80 -2.70 5.70 -4.45 1.25 -2.45 0.95 -3.85 -1.40 -6.15 -3.90 -3.90 -8.75 -4.20 -12.70 -0.70 -2.50 2.20 -3.40 4.45 -2.45 6.25 1.45 2.80 5.45 5.55 8.10 5.60 0.60 0 1.80 -0.25 2.75 -0.55z m-11.75 -27.80 c-0.15 -1.05 -0.40 -6.30 -0.55 -11.65 -0.15 -5.35 -0.40 -10.65 -0.55 -11.80 l-0.25 -2.05 -6.25 -0.30 c-3.40 -0.20 -9.40 -0.80 -13.35 -1.40 -3.90 -0.60 -7.85 -1.10 -8.80 -1.15 l-1.70 -0.05 -1.15 4.25 c-0.60 2.35 -1.95 7.40 -2.95 11.25 -2.70 10.10 -2.65 9.15 -0.45 10.05 4.55 1.90 21.55 4.25 33.35 4.60 l2.95 0.10 -0.30 -1.85z m40.45 -0.10 c11.95 -2.10 18.75 -3.75 18.70 -4.55 0 -0.40 -1.75 -6.15 -3.90 -12.75 -2.80 -8.65 -4.05 -12 -4.60 -11.90 -0.40 0.05 -4.05 0.65 -8.15 1.35 -4.05 0.70 -10.55 1.60 -14.35 1.90 l-6.95 0.60 0 13.05 c0 7.20 0.15 13.25 0.40 13.50 0.60 0.65 12.50 -0.10 18.85 -1.20z m-95.50 -16.10 c0.90 -4.50 2.15 -10.35 2.65 -12.95 0.55 -2.60 0.95 -4.80 0.90 -4.90 -0.10 -0.05 -1.50 -0.45 -3.10 -0.90 -3.90 -1 -11.55 -3.80 -18.95 -6.95 l-6 -2.55 -6.10 11 c-3.40 6.10 -6.15 11.20 -6.15 11.40 0 0.70 4.15 3.05 9.75 5.55 6.15 2.70 24.50 9 25.15 8.60 0.05 -0.05 0.90 -3.80 1.85 -8.30z m139.05 5.50 c7.45 -2.30 30.20 -13.25 30.20 -14.50 0 -0.35 -13.25 -20.25 -14.05 -21.15 -0.20 -0.25 -3.05 0.85 -6.55 2.60 -6 2.95 -17.95 8.10 -18.80 8.10 -0.20 0 -0.80 0.30 -1.25 0.65 -0.80 0.55 -0.60 1.50 2.65 12.35 1.90 6.45 3.50 12.05 3.50 12.40 0 0.80 0.35 0.80 4.30 -0.45z m-189.85 -33.40 c3.30 -6.20 6 -11.25 5.90 -11.35 -0.05 -0.05 -2 -1.35 -4.35 -2.95 -3.70 -2.50 -12.25 -9.20 -17.55 -13.65 l-1.80 -1.55 -9.15 9.20 -9.20 9.20 3.50 3.40 c5.85 5.65 25.50 20.05 26.25 19.25 0.20 -0.20 3.05 -5.40 6.40 -11.55z m246.15 6.35 c6.15 -4.15 23.40 -18.80 23.40 -19.85 0 -0.20 -3.75 -3.70 -8.35 -7.80 -4.65 -4.10 -9 -7.95 -9.70 -8.65 l-1.35 -1.20 -3.20 3 c-3.90 3.70 -10.45 9 -15.85 12.85 l-4.05 2.90 1.40 2.35 c0.75 1.30 3.70 6.30 6.60 11.10 l5.25 8.80 1.50 -0.80 c0.85 -0.40 2.80 -1.60 4.35 -2.70z m-119.70 -8.50 c-0.10 -7.30 -0.30 -6.45 -0.50 2.25 -0.10 2.65 0 4.85 0.25 4.85 0.20 0 0.30 -3.20 0.25 -7.10z m-17.55 -1.25 c-0.10 -1.05 -0.20 -0.30 -0.20 1.60 0 1.95 0.10 2.75 0.20 1.90 0.10 -0.90 0.10 -2.50 0 -3.50z m-22.75 -0.15 c0.15 -0.80 0.05 -1.50 -0.20 -1.50 -0.20 0 -0.40 0.70 -0.40 1.50 0 0.85 0.10 1.50 0.20 1.50 0.10 0 0.30 -0.65 0.40 -1.50z m47.75 -3.10 c-0.10 -0.65 -0.20 -0.15 -0.20 1.10 0 1.25 0.10 1.75 0.20 1.15 0.10 -0.65 0.10 -1.65 0 -2.25z m-24.50 -3 c-0.10 -0.65 -0.20 -0.25 -0.20 0.85 -0.05 1.10 0.05 1.60 0.20 1.15 0.10 -0.50 0.10 -1.40 0 -2z m-61.90 0 c0 -0.65 -0.15 -0.85 -0.30 -0.50 -0.10 0.30 -0.60 0.60 -1.05 0.65 -0.70 0 -0.65 0.10 0.15 0.45 0.55 0.25 1.05 0.45 1.15 0.45 0.05 0.05 0.10 -0.45 0.05 -1.05z m120.05 0.60 c-0.40 -0.25 -2.10 -0.45 -3.75 -0.45 -2.40 0.05 -2.70 0.15 -1.50 0.45 2.30 0.60 6.15 0.60 5.25 0z m21.35 -6.60 c-0.10 -0.65 -0.20 -0.15 -0.20 1.10 0 1.25 0.10 1.75 0.20 1.15 0.10 -0.65 0.10 -1.65 0 -2.25z m-155.70 -1.30 c-0.75 -0.10 -1.15 -0.60 -1.30 -1.50 -0.15 -1.10 -0.20 -1 -0.30 0.45 -0.05 2.20 0.30 2.60 1.65 1.80 l1.05 -0.60 -1.10 -0.15z m7.85 -6.35 c0.50 -0.60 0.50 -0.75 -0.20 -0.75 -0.45 0 -0.80 0.35 -0.80 0.75 0 0.40 0.10 0.75 0.20 0.75 0.10 0 0.45 -0.35 0.80 -0.75z m-75.90 -21.95 c-2.70 -2.95 -7.40 -9.25 -11.60 -15.55 -2 -3 -3.80 -5.70 -4.05 -5.95 -0.35 -0.40 -22.15 10.80 -22.70 11.65 -0.10 0.25 0.45 1.70 1.25 3.25 2.75 5.25 8.40 13.15 15.95 22.20 l4.30 5.10 9.35 -9.35 9.35 -9.35 -1.85 -2z m69.05 18.85 c-0.40 -0.15 -0.65 -1.20 -0.65 -2.75 0 -3.15 -0.25 -3 -0.70 0.50 -0.30 2.50 -0.30 2.60 0.80 2.55 0.65 0 0.85 -0.15 0.55 -0.30z m254.15 -4.75 c4.65 -4.50 15.95 -17.65 18.30 -21.35 l0.85 -1.35 -11.05 -7 -11.10 -7.05 -3.30 4.30 c-1.85 2.35 -6.20 7.35 -9.70 11.05 -3.60 3.80 -6.20 7 -6.10 7.35 0.40 1 15.95 19.15 16.40 19.15 0.20 0 2.75 -2.30 5.70 -5.10z m-25.65 -41.25 c-0.65 -0.10 -1.65 -0.10 -2.25 0 -0.65 0.10 -0.15 0.20 1.10 0.20 1.25 0 1.75 -0.10 1.15 -0.20z m57.55 -2.25 c3.20 -5.10 6.65 -13 10.80 -25 2.10 -6 2.30 -6.90 1.60 -7.10 -1.70 -0.55 -24.30 -5.80 -24.80 -5.80 -0.30 0 -1.50 2.80 -2.70 6.25 -1.15 3.40 -3.65 9.60 -5.55 13.75 l-3.50 7.60 1.85 1.05 c12.15 7.25 19.90 11.75 20.25 11.80 0.20 0.05 1.10 -1.15 2.05 -2.55z m-343.25 0.75 c0.10 -0.10 -0.25 -0.15 -0.85 -0.15 -0.70 0 -1.10 0.30 -1.10 0.80 0 0.70 0.15 0.75 0.90 0.15 0.45 -0.35 0.95 -0.75 1.05 -0.80z m-51.30 -6.25 c5.80 -3.65 10.70 -6.75 10.95 -6.90 0.20 -0.20 -0.95 -3.20 -2.55 -6.75 -2.90 -6.35 -8.05 -19.70 -8.05 -20.80 0 -0.30 -0.40 -0.45 -0.85 -0.35 -0.50 0.15 -6.25 1.70 -12.80 3.40 l-11.95 3.15 0.35 1.80 c0.55 3.10 3.20 10.35 6.45 17.70 3.65 8.20 7.20 15.35 7.60 15.35 0.15 0 5.05 -3 10.85 -6.60z m327.20 -0.75 c-0.15 -0.50 -0.25 -0.10 -0.25 0.85 0 0.95 0.10 1.35 0.25 0.90 0.10 -0.50 0.10 -1.30 0 -1.75z m-294.85 -10.65 c0.65 -0.40 0.60 -0.50 -0.10 -0.50 -0.50 0 -0.90 -0.35 -0.90 -0.80 0 -0.40 -0.20 -0.60 -0.50 -0.45 -0.70 0.45 -0.60 2.25 0.15 2.25 0.30 0 0.95 -0.25 1.35 -0.50z m310.15 -4.60 c2 -0.05 2.50 -0.15 1.35 -0.25 -2.20 -0.30 -8 0.30 -8 0.80 0 0.20 0.75 0.70 1.65 1.15 1.55 0.75 1.60 0.75 1.75 -0.40 0.15 -1.10 0.40 -1.20 3.25 -1.30z m11.05 -0.80 c0.15 -0.25 -0.75 -0.90 -1.95 -1.50 l-2.25 -1.10 0 1.50 c0 1.40 0.10 1.50 1.95 1.50 1.10 0 2.10 -0.20 2.25 -0.40z m-326.20 -5.35 c0 -1.35 -0.30 -1.50 -1.45 -0.80 -0.85 0.55 -0.35 2.05 0.70 2.05 0.45 0 0.75 -0.45 0.75 -1.25z m13.05 -0.10 c0.95 -1.05 1 -1.25 0.30 -1 -0.50 0.20 -1.35 0.35 -1.85 0.35 -0.65 0 -0.85 0.25 -0.65 1 0.35 1.30 0.75 1.25 2.20 -0.35z m-10.80 -11.65 c0.90 -0.40 0.85 -0.45 -0.35 -0.45 -0.80 -0.05 -1.40 0.20 -1.40 0.45 0 0.60 0.40 0.60 1.75 0z m-47 -16.50 c4.40 -1.60 8.90 -3.25 10 -3.70 l2.05 -0.80 -1.40 -5.50 c-0.75 -3 -1.95 -9.35 -2.65 -14.10 -0.70 -4.75 -1.45 -9 -1.65 -9.40 -0.30 -0.70 -1.75 -0.70 -12.75 -0.20 -6.80 0.35 -12.75 0.75 -13.20 0.90 -1.70 0.65 0.40 14.55 4.65 30.65 0.90 3.60 1.70 6.70 1.70 6.85 0 0.15 1.20 -0.20 2.65 -0.75 1.40 -0.60 6.20 -2.35 10.60 -3.95z m431.25 -2.55 c1.50 -5.90 3.45 -23.30 3.50 -31.30 l0 -1.65 -3.35 0 c-3.95 0 -21.40 0.95 -22.95 1.25 -1 0.20 -1.10 0.65 -1.40 6.35 -0.20 3.40 -0.80 9.75 -1.40 14.15 -0.55 4.40 -1.05 8.45 -1.10 8.95 -0.05 0.85 1.40 1.35 12.20 4.05 9.60 2.45 12.40 2.95 12.90 2.50 0.35 -0.35 1.10 -2.25 1.60 -4.30z m-389.50 -1.90 c0 -0.65 -0.40 -0.80 -2 -0.65 -1.45 0.15 -2 0.45 -2 1.05 0 0.65 0.40 0.80 2 0.65 1.45 -0.15 2 -0.45 2 -1.05z m336.75 0.45 c-1.35 -0.60 -1.75 -0.60 -1.75 0 0 0.30 0.60 0.50 1.40 0.45 1.20 0 1.25 -0.05 0.35 -0.45z m-7.50 -2 c-1.35 -0.60 -1.75 -0.60 -1.75 0 0 0.30 0.60 0.50 1.40 0.45 1.20 0 1.25 -0.05 0.35 -0.45z m11.15 -33.85 c-0.05 -0.25 -2.15 -0.25 -4.65 -0.10 l-4.50 0.25 3.75 0.10 c2.05 0.05 4.10 0.35 4.50 0.60 0.75 0.45 1.30 -0.05 0.90 -0.85z m-344.50 -2.50 c-0.80 -0.10 -2 -0.10 -2.75 0 -0.80 0.10 -0.15 0.20 1.35 0.20 1.50 0 2.15 -0.10 1.40 -0.20z m-39.15 -6.70 c6.05 -0.30 11.15 -0.65 11.35 -0.75 0.20 -0.15 0.40 -1.65 0.40 -3.35 0 -5.20 1.90 -22.85 2.80 -25.90 0.20 -0.70 -1.80 -1.35 -12.30 -3.95 -8.55 -2.15 -12.75 -2.95 -13.05 -2.65 -1.90 1.90 -4.95 23.95 -4.95 35.65 l0 2.10 2.40 -0.30 c1.30 -0.15 7.30 -0.55 13.35 -0.85z m433.45 -3.55 c1.15 -1.60 1.05 -9 -0.25 -19 -0.90 -7.30 -2.70 -17.85 -3.05 -18.15 -0.15 -0.10 -25.50 6.70 -25.75 6.90 -0.05 0.10 0.20 2.05 0.55 4.35 0.65 3.90 1.25 10.30 2.05 21.65 l0.35 4.35 2.55 0.05 c5.20 0.15 21.60 0.75 22.20 0.85 0.30 0.05 0.95 -0.40 1.35 -1z m-394.45 -2.95 c-0.85 -0.25 -2.10 -0.25 -3 0 -1.25 0.40 -1.05 0.45 1.50 0.45 2.50 0 2.75 -0.05 1.50 -0.45z m339.65 -2.80 c-0.50 -0.10 -1.30 -0.10 -1.75 0 -0.50 0.15 -0.10 0.25 0.85 0.25 0.95 0 1.35 -0.10 0.90 -0.25z m-337.10 -9.45 c1.90 -0.90 3.70 -3.45 3.70 -5.25 0 -1.85 -1.70 -4.20 -3.75 -5.15 -2.30 -1.10 -4 -0.55 -6.30 2.10 -1.30 1.45 -1.50 2.05 -1.25 3.50 0.30 1.95 1.35 3.30 3.55 4.65 1.85 1.15 1.95 1.15 4.05 0.15z m336.85 -7.55 c-0.65 -0.10 -1.75 -0.10 -2.50 0 -0.80 0.10 -0.25 0.20 1.10 0.20 1.40 0 2 -0.10 1.40 -0.20z m1.75 -13.50 c-0.50 -0.10 -1.40 -0.10 -2 0 -0.65 0.10 -0.25 0.20 0.85 0.20 1.10 0.05 1.60 -0.05 1.15 -0.20z m-329.50 -5 c-0.50 -0.10 -1.30 -0.10 -1.75 0 -0.50 0.15 -0.10 0.25 0.85 0.25 0.95 0 1.35 -0.10 0.90 -0.25z m362.10 -8.85 l11.25 -2.60 -0.15 -2.10 c-0.25 -4.10 -5 -17 -10.45 -28.45 l-2.40 -5.10 -11 6.45 c-6.05 3.55 -11.20 6.55 -11.50 6.65 -0.25 0.10 0.45 2.20 1.60 4.65 2.05 4.35 4.70 11.45 7.35 19.55 1.30 3.95 1.40 4.10 2.70 3.85 0.75 -0.15 6.40 -1.45 12.60 -2.90z m-393.20 -1.90 c1.20 -3.75 5.60 -13.25 8.90 -19.35 1.55 -2.90 2.75 -5.25 2.65 -5.30 -1.05 -0.90 -21.50 -14.25 -21.75 -14.25 -0.80 0 -5.25 7.40 -8.30 13.75 -3.45 7.05 -8.65 19.60 -8.25 19.95 0.20 0.20 24.75 7.65 25.55 7.75 0.15 0.05 0.70 -1.15 1.20 -2.55z m38.60 -6.25 c-0.50 -0.10 -1.30 -0.10 -1.75 0 -0.50 0.15 -0.10 0.25 0.85 0.25 0.95 0 1.35 -0.10 0.90 -0.25z m303.60 -15.40 c0 -0.65 -0.20 -0.70 -1.10 -0.20 -1.70 0.85 -1.70 0.95 -0.25 0.95 0.90 0 1.35 -0.25 1.35 -0.75z m-5 -19.95 c0 -0.10 -0.35 -0.45 -0.75 -0.80 -0.60 -0.50 -0.75 -0.50 -0.75 0.20 0 0.45 0.35 0.80 0.75 0.80 0.40 0 0.75 -0.10 0.75 -0.20z m32.25 -8.10 c5.25 -2.95 9.60 -5.45 9.70 -5.50 0.25 -0.20 -2.70 -5.40 -5.10 -8.95 -3.95 -5.80 -16.45 -20.75 -17.35 -20.75 -0.25 0 -4.40 4.20 -9.20 9.30 l-8.80 9.30 2.65 3.10 c3.30 3.80 8.10 10.10 12.30 16.15 l3.20 4.65 1.55 -0.95 c0.85 -0.50 5.85 -3.35 11.05 -6.35z m-49.65 3.40 c-0.75 -0.10 -1.10 -0.55 -1.15 -1.25 0 -1.05 -0.05 -1.05 -0.40 -0.10 -0.25 0.55 -0.60 1.75 -0.80 2.70 l-0.35 1.70 1.90 -1.45 c1.70 -1.30 1.80 -1.45 0.80 -1.60z m-297.50 0 c1.15 -1.90 7.50 -9.15 13.60 -15.45 4.40 -4.60 4.85 -5.25 4.25 -6 -2.30 -2.95 -15.05 -18.15 -15.40 -18.40 -0.70 -0.40 -4.95 3.20 -9.95 8.35 -7.85 8.10 -16 18.20 -15.30 18.90 0.80 0.70 21.30 14 21.65 14 0.20 0 0.70 -0.65 1.15 -1.40z m299.20 -13.45 c-0.10 -0.10 -0.85 0.35 -1.60 1.05 -1.15 1 -1.25 1.25 -0.55 1.30 0.45 0 0.85 0.40 0.90 0.90 0 0.45 0.35 -0.05 0.75 -1.10 0.40 -1.10 0.60 -2.05 0.50 -2.15z m-16.80 -7.65 c0 -0.55 -0.10 -1 -0.15 -1 -0.10 0 -0.60 0.45 -1.10 1 -0.90 0.95 -0.85 1 0.15 1 0.75 0 1.10 -0.30 1.10 -1z m22.95 -16.10 c2.10 -2 6.25 -6 9.25 -8.85 l5.40 -5.20 -4.95 -4.80 c-5.80 -5.70 -23.65 -19.25 -24.35 -18.50 -1 1.10 -12.75 22.70 -12.45 22.95 0.25 0.20 1.95 1.40 3.90 2.75 4.25 2.90 11.50 8.70 15.50 12.45 1.65 1.50 3.20 2.75 3.45 2.80 0.25 0 2.20 -1.65 4.25 -3.60z m-258.70 -8.65 c3.05 -2.25 6.90 -5.05 8.65 -6.20 1.70 -1.15 3.10 -2.25 3.10 -2.45 0 -0.20 -1.70 -3.40 -3.80 -7.10 -2.10 -3.70 -4.85 -8.60 -6.10 -10.85 -1.25 -2.30 -2.50 -4.15 -2.75 -4.15 -2.10 0 -13.65 8.20 -23.85 16.95 l-6.10 5.20 5.95 5.55 c3.25 3.05 7.60 7.15 9.65 9.10 l3.70 3.60 3.05 -2.80 c1.65 -1.55 5.50 -4.60 8.50 -6.85z m171.10 -6.10 c-0.15 -0.50 -0.25 -0.10 -0.25 0.85 0 0.95 0.10 1.35 0.25 0.90 0.10 -0.50 0.10 -1.30 0 -1.75z m-24.85 -1.90 c0 -0.95 -0.10 -1.75 -0.20 -1.75 -0.10 0 -0.30 0.80 -0.40 1.75 -0.10 0.95 0 1.75 0.20 1.75 0.20 0 0.40 -0.80 0.40 -1.75z m-67.70 -2.65 c-0.55 -0.50 -0.70 0.15 -0.40 1.65 l0.35 1.50 0.15 -1.40 c0.10 -0.80 0.05 -1.55 -0.10 -1.75z m37.70 -6.10 l0 -6.50 -1.60 0.05 c-1.50 0.05 -1.55 0.10 -0.40 0.40 1.25 0.35 1.25 0.40 1.40 6.45 0.05 3.35 0.25 6.10 0.35 6.10 0.15 0 0.25 -2.90 0.25 -6.50z m11.85 -0.65 c-0.10 -1.15 -0.15 -0.05 -0.15 2.40 0 2.50 0.05 3.40 0.15 2.10 0.10 -1.30 0.10 -3.35 0 -4.50z m30 2.30 c-0.15 -0.50 -0.25 -0.10 -0.25 0.85 0 0.95 0.10 1.35 0.25 0.90 0.10 -0.50 0.10 -1.30 0 -1.75z m-19.50 -2.25 c-0.10 -0.90 -0.20 -0.30 -0.20 1.35 0 1.65 0.10 2.40 0.20 1.65 0.10 -0.75 0.10 -2.10 0 -3z m-61.35 1.60 c0 -0.80 -0.20 -1.50 -0.40 -1.50 -0.25 0 -0.35 0.70 -0.20 1.50 0.10 0.85 0.30 1.50 0.40 1.50 0.10 0 0.20 -0.65 0.20 -1.50z m141.25 -11.25 c3.50 -5.50 6.55 -10.35 6.80 -10.80 0.35 -0.65 -0.15 -1.20 -2.25 -2.60 -5.20 -3.45 -16.65 -8.70 -28.85 -13.25 l-2.75 -1 -1.05 4.05 c-0.55 2.25 -2.10 8 -3.35 12.80 -1.30 4.80 -2.15 8.85 -1.95 9.05 0.20 0.20 2.25 1 4.50 1.75 2.30 0.80 8.15 3.40 13 5.80 4.90 2.40 9.05 4.30 9.25 4.30 0.20 -0.05 3.20 -4.60 6.65 -10.10z m-176.30 2.75 c5.60 -2.45 16.20 -6.50 17 -6.50 0.30 0 0.55 -0.25 0.55 -0.60 0 -0.35 -1.50 -6.05 -3.35 -12.75 -2.60 -9.50 -3.50 -12.15 -4.15 -12.15 -1.50 0 -9.75 2.90 -16.25 5.75 -5.90 2.55 -16.45 7.85 -17.35 8.70 -0.25 0.20 2.35 4.60 5.65 9.80 3.35 5.25 6.55 10.20 7.05 11.10 l1 1.60 2.55 -1.45 c1.45 -0.80 4.70 -2.35 7.30 -3.50z m86.40 1.65 c-0.15 -0.50 -0.25 -0.10 -0.25 0.85 0 0.95 0.10 1.35 0.25 0.90 0.10 -0.50 0.10 -1.30 0 -1.75z m-40.85 -13.60 c3.15 -0.55 8.25 -1.25 11.25 -1.55 3.05 -0.30 6.70 -0.65 8.15 -0.80 l2.60 -0.25 0 -13.20 0 -13.20 -2.25 -0.35 c-1.25 -0.15 -4 -0.15 -6.15 0 -7 0.65 -27.30 4.30 -28.90 5.25 -0.40 0.20 0.10 2.45 1.60 7.05 1.15 3.70 2.95 9.40 3.95 12.65 1.70 5.50 1.90 5.90 2.90 5.65 0.60 -0.20 3.70 -0.75 6.85 -1.25z m75.35 -6.30 c1.15 -3.85 2.80 -9.35 3.65 -12.20 1.25 -4.15 1.40 -5.30 0.90 -5.65 -3.20 -2.05 -19.55 -5.10 -35 -6.55 l-1.90 -0.15 0 13.90 0 13.90 3.55 0 c3.75 0 13.30 1.35 20.70 2.95 2.50 0.55 4.85 0.90 5.25 0.85 0.50 -0.05 1.40 -2.35 2.85 -7.05z"/>
 </g>
 <g fill="#8d99a7">
  <path d="M98.35 566.10 c-1.30 -0.80 -1.80 -1.60 -0.95 -1.60 0.60 0.05 2.85 1.90 2.60 2.20 -0.15 0.10 -0.90 -0.15 -1.65 -0.60z"/>
  <path d="M97.70 563.25 c-0.85 -0.40 -1.80 -1.05 -2.15 -1.45 -0.60 -0.70 -0.45 -0.80 1.15 -0.80 1.35 0 1.80 0.20 1.80 0.80 0 0.45 0.40 1.15 0.90 1.50 1.10 0.85 0.30 0.80 -1.70 -0.05z"/>
  <path d="M281 473.15 c-13.20 -0.95 -24.65 -2.80 -28.65 -4.55 l-2.30 -1 0.95 -3.45 c0.50 -1.85 1.65 -6.10 2.50 -9.40 0.90 -3.30 2.10 -8 2.75 -10.40 0.65 -2.45 1.30 -4.55 1.40 -4.70 0.15 -0.10 3.85 0.35 8.20 1.05 9.10 1.45 16.90 2.30 21.40 2.30 l3.20 0 0.25 2.15 c0.15 1.15 0.40 6.15 0.55 11.10 0.15 4.95 0.40 10.85 0.60 13.15 l0.30 4.10 -4.45 -0.10 c-2.45 -0.05 -5.45 -0.15 -6.70 -0.25z"/>
  <path d="M313 473 l-2.75 -0.25 -0.15 -14.80 -0.10 -14.80 4.85 -0.35 c6.80 -0.45 18.55 -2.20 23.70 -3.50 l4.35 -1.10 4.60 14.45 c2.50 7.95 4.45 14.55 4.35 14.70 -0.45 0.40 -10.80 2.65 -18.40 3.95 -8.20 1.40 -16.35 2.05 -20.45 1.70z"/>
  <path d="M232 464 c-0.70 -0.20 -5.40 -1.75 -10.50 -3.40 -10.35 -3.40 -18.95 -7 -23.10 -9.80 l-2.80 -1.85 5.70 -10.35 c3.15 -5.70 6.35 -11.55 7.10 -13 0.70 -1.45 1.55 -2.50 1.85 -2.40 10.90 4.95 21.85 9.20 27.25 10.60 1.80 0.45 3.30 0.85 3.40 0.90 0.10 0.10 -1.45 7.65 -5.10 25.30 -0.45 2.05 -0.80 3.90 -0.80 4.15 0 0.45 -1.40 0.40 -3 -0.15z"/>
  <path d="M368.75 461.90 c-0.10 -0.35 -1.90 -6.45 -4 -13.55 -2.05 -7.05 -3.90 -13.15 -4 -13.50 -0.15 -0.40 1.75 -1.35 5.40 -2.80 7.60 -3 16.85 -7.25 21 -9.65 1.90 -1.10 3.60 -1.80 3.85 -1.60 1.85 2.10 16.55 24.85 16.20 25.20 -0.80 0.75 -10.45 5.90 -15.75 8.45 -7.85 3.70 -13.60 6 -17.85 7.10 -4.45 1.15 -4.55 1.15 -4.85 0.35z"/>
  <path d="M172.70 436.95 c-12.30 -8.05 -26.70 -20 -26.70 -22.10 0 -0.65 20 -20.85 20.65 -20.85 0.15 0 1.85 1.30 3.70 2.90 7.50 6.40 17.85 14.20 21.90 16.50 0.90 0.50 0.85 0.70 -1.10 4.45 -6.90 12.95 -12.15 22.40 -12.55 22.55 -0.25 0.05 -2.90 -1.50 -5.90 -3.45z"/>
  <path d="M416.30 425.80 c-4 -6.75 -7.30 -12.40 -7.30 -12.65 0.05 -0.20 1.90 -1.70 4.20 -3.30 6 -4.20 13 -9.85 17.40 -14.15 l3.90 -3.75 11 9.80 c6.05 5.40 11.15 10.05 11.35 10.40 0.55 0.95 -11.80 12.15 -21.30 19.25 -4.80 3.65 -9.85 6.60 -11.20 6.60 -0.40 0 -3.80 -5.10 -8.05 -12.20z"/>
  <path d="M128.65 399.90 c-11.05 -12.95 -19.65 -25.80 -19.65 -29.35 0 -0.65 2.90 -2.40 11.15 -6.80 6.10 -3.25 11.80 -6.30 12.65 -6.80 l1.55 -0.95 4.40 6.65 c5.15 7.70 10.90 15.35 13.45 17.80 1 0.95 1.80 2 1.80 2.30 0 0.25 -4.80 5.30 -10.65 11.15 l-10.70 10.70 -4 -4.70z"/>
  <path d="M456.90 391.75 c-5.05 -5.95 -9.20 -11 -9.30 -11.25 -0.10 -0.25 0.50 -1.10 1.30 -1.85 3.70 -3.45 12.90 -13.60 15.95 -17.55 1.80 -2.40 3.60 -4.65 3.90 -5 0.50 -0.55 2.95 0.80 13.05 7.20 6.85 4.30 12.65 8 12.85 8.25 0.45 0.35 -1.85 3.55 -9.10 12.45 -7.20 8.90 -17.05 18.50 -18.95 18.50 -0.30 0 -4.65 -4.85 -9.70 -10.75z"/>
  <path d="M490.75 349.45 c-6.60 -3.85 -12.20 -7.20 -12.40 -7.40 -0.25 -0.25 0.35 -1.95 1.30 -3.85 4.45 -8.95 10.35 -23.90 10.35 -26.30 0 -0.70 0.25 -0.90 0.90 -0.70 0.45 0.15 7.15 1.70 14.80 3.50 7.70 1.80 14.10 3.40 14.20 3.55 0.30 0.30 -3.65 12.25 -6.25 19 -3.55 9.10 -9.10 19.30 -10.55 19.25 -0.20 0 -5.75 -3.20 -12.35 -7.05z"/>
  <path d="M97.20 353.20 c-1.80 -3.05 -8.10 -16.75 -10.35 -22.50 -1.80 -4.55 -3.85 -11.80 -3.85 -13.55 0 -0.75 2.10 -1.45 14.05 -4.60 7.95 -2.10 14.20 -3.50 14.40 -3.25 0.20 0.25 1.35 3.15 2.55 6.45 2.75 7.80 7.10 17.85 9.05 20.95 0.80 1.35 1.30 2.60 1.10 2.80 -0.30 0.30 -22.25 14.05 -25 15.65 -0.40 0.25 -1.10 -0.45 -1.95 -1.95z"/>
  <path d="M78.30 302.10 c-0.50 -0.80 -3.80 -14.10 -5.30 -21.35 -1.70 -8.10 -2.60 -18.85 -1.60 -19.45 0.65 -0.40 28.70 -1.85 29.05 -1.50 0.10 0.10 0.85 4.30 1.65 9.35 0.75 5 2.10 11.80 2.95 15.10 0.85 3.30 1.65 6.45 1.80 7 0.20 0.90 -0.55 1.30 -6.45 3.45 -3.65 1.35 -9.85 3.65 -13.80 5.15 -7.45 2.80 -7.90 2.90 -8.30 2.25z"/>
  <path d="M509.10 296.50 c-7.50 -1.85 -13.75 -3.45 -13.85 -3.60 -0.15 -0.10 0.10 -2.10 0.50 -4.45 1.25 -7.30 2.25 -16 2.50 -22.15 0.15 -3.30 0.50 -6.15 0.75 -6.30 0.30 -0.20 5.75 -0.60 12.15 -0.95 6.40 -0.30 12.90 -0.70 14.50 -0.85 2.40 -0.20 2.90 -0.10 3.20 0.60 0.45 1.20 -0.65 19.10 -1.60 26.20 -1 7.30 -2.45 12.90 -3.60 14.05 -0.85 0.85 -1.50 0.70 -14.55 -2.55z"/>
  <path d="M74 245.55 c0 -9 1.75 -26.45 3.25 -32.35 1.15 -4.45 1.75 -5.70 2.80 -5.70 0.75 0 27.50 6.45 27.75 6.70 0.05 0.05 -0.45 3.30 -1.05 7.30 -1.30 8.05 -2.25 17.85 -2.25 22.45 0 1.65 -0.15 3.10 -0.40 3.25 -0.20 0.10 -5.10 0.45 -10.85 0.75 -5.80 0.30 -12.45 0.70 -14.85 0.90 l-4.40 0.30 0 -3.60z"/>
  <path d="M509.30 244.95 c-6.55 -0.25 -12 -0.50 -12.10 -0.60 -0.10 -0.05 -0.40 -3.75 -0.70 -8.10 -0.65 -9.80 -1.25 -15.25 -2.30 -20.65 -0.45 -2.30 -0.75 -4.20 -0.65 -4.30 0.25 -0.20 28.60 -7.80 29 -7.80 0.20 0 0.80 2.55 1.40 5.65 2.85 15.25 4 32.80 2.25 35.25 -0.60 0.85 -1.20 1.10 -2.85 1 -1.15 0 -7.50 -0.25 -14.05 -0.45z"/>
  <path d="M487.30 193.65 c-2.70 -8.40 -6.20 -17.50 -8.45 -22 l-2.30 -4.55 12.60 -7.25 c6.95 -4 12.95 -7.40 13.40 -7.60 0.65 -0.25 1.45 1.10 3.85 6.35 4.05 8.85 7.20 16.70 8.80 21.90 1.60 5.25 2.35 10.35 1.60 10.95 -0.45 0.35 -26.85 6.55 -27.80 6.55 -0.15 0 -0.95 -1.95 -1.70 -4.35z"/>
  <path d="M96.35 191.50 c-7.90 -2.40 -14.50 -4.50 -14.70 -4.70 -0.45 -0.45 5.50 -15.15 9.40 -23.05 3.65 -7.45 7.75 -13.90 9.05 -14.15 0.70 -0.15 24.90 15.55 24.90 16.15 0 0.15 -1.55 3.15 -3.45 6.70 -3.95 7.25 -7.95 15.95 -9.30 20.05 -0.45 1.50 -1 2.90 -1.20 3.05 -0.15 0.15 -6.80 -1.70 -14.70 -4.05z"/>
  <path d="M464 146.90 c-4.35 -6.45 -10.35 -14.30 -14.05 -18.45 l-3.40 -3.80 10.35 -10.95 c5.65 -6 10.45 -10.95 10.65 -10.95 1.05 0 15.75 17.90 19.70 23.95 2.75 4.25 5.60 9.65 5.20 9.95 -0.60 0.45 -25.25 14.35 -25.45 14.35 -0.15 -0.05 -1.50 -1.85 -3 -4.10z"/>
  <path d="M119.90 140.85 c-6.75 -4.45 -12.50 -8.25 -12.70 -8.45 -0.65 -0.70 9.75 -13.45 17.20 -21.10 5.05 -5.20 10.30 -9.45 11.40 -9.20 0.55 0.15 16.30 18.70 18.05 21.25 0.65 1 0.55 1.20 -1.65 3.25 -4.10 3.75 -15.15 16 -17.35 19.25 -1.15 1.70 -2.20 3.10 -2.35 3.10 -0.15 0 -5.80 -3.65 -12.60 -8.10z"/>
  <path d="M428.75 109.20 c-6.50 -5.70 -13 -10.75 -17.20 -13.50 -1.65 -1.05 -3.05 -2.15 -3.05 -2.35 0 -0.45 13.85 -25.30 14.50 -26 0.45 -0.50 5.60 2.85 15 9.85 7.05 5.20 17.70 15.30 17.40 16.45 -0.15 0.60 -20.50 20.35 -21 20.35 -0.05 0 -2.60 -2.15 -5.65 -4.80z"/>
  <path d="M156.85 100.60 l-10.90 -10.35 2.65 -2.50 c10.85 -10.10 27.75 -22.25 31 -22.25 0.40 0 1.45 1.40 2.35 3.15 0.95 1.70 3.45 6.15 5.55 9.85 2.10 3.70 4.55 8 5.40 9.55 l1.60 2.80 -3.85 2.70 c-7.55 5.15 -15.05 10.90 -18.55 14.15 -1.90 1.80 -3.65 3.30 -3.90 3.25 -0.25 0 -5.35 -4.65 -11.35 -10.35z"/>
  <path d="M381.80 79.50 c-5.45 -2.70 -12.15 -5.65 -14.85 -6.55 -3.20 -1.10 -4.90 -1.90 -4.75 -2.30 0.30 -0.70 4.90 -17.90 6.40 -23.90 0.60 -2.20 1.20 -4.20 1.40 -4.45 0.50 -0.50 2.35 0.05 12.50 4.05 13 5.15 25.90 12.15 25.40 13.75 -0.50 1.45 -15.20 24.35 -15.65 24.35 -0.25 0 -4.95 -2.25 -10.45 -4.95z"/>
  <path d="M209.95 79.90 c-0.70 -1.20 -4.40 -6.95 -8.15 -12.85 -3.75 -5.85 -6.80 -10.70 -6.70 -10.80 0.10 -0.05 2.95 -1.60 6.40 -3.40 11.65 -6.10 25 -11.45 30.45 -12.15 l2.30 -0.30 3.70 13.70 c2.05 7.50 3.80 13.90 3.90 14.25 0.15 0.30 -0.30 0.70 -0.95 0.90 -6.15 1.80 -22.25 8.65 -26.40 11.20 -1.40 0.85 -2.70 1.55 -2.90 1.55 -0.20 0 -0.95 -0.95 -1.65 -2.10z"/>
  <path d="M258.05 65.35 c-1.50 -4.15 -8.65 -27.90 -8.45 -28.10 0.45 -0.45 10.70 -2.65 18.65 -4 8.15 -1.40 19.10 -2.10 21.50 -1.35 1.30 0.35 1.50 0.65 1.40 2.15 -0.05 0.95 -0.10 7.50 -0.10 14.55 l-0.05 12.85 -2.60 0.25 c-1.45 0.15 -5.10 0.50 -8.15 0.80 -6.90 0.70 -16.25 2.25 -19.40 3.20 -2.35 0.70 -2.40 0.70 -2.80 -0.35z"/>
  <path d="M334.50 64.20 c-8.75 -1.85 -18.05 -3.20 -21.95 -3.20 l-3.55 0 -0.05 -13.85 c0 -7.65 -0.10 -14.30 -0.20 -14.85 -0.40 -2.10 0.15 -2.40 3.95 -2.05 16.35 1.50 29.65 3.90 35.35 6.35 l2.35 1 -1.25 4.05 c-1.95 6.55 -3.95 13.20 -5.65 18.75 -1.20 3.95 -1.75 5.10 -2.40 5.05 -0.45 -0.05 -3.45 -0.60 -6.60 -1.25z"/>
 </g>
 <g fill="#008c72">
  <path d="M106 569.30 c-3.15 -0.65 -7.50 -2.65 -7.50 -3.40 0 -0.30 0.40 -0.35 0.90 -0.15 4.30 1.75 6.95 2.40 11 2.60 5.75 0.35 9.75 -0.45 13.50 -2.70 3.60 -2.15 4.75 -3.25 6.80 -6.40 2.10 -3.15 3.20 -6.35 3.90 -11.35 0.65 -4.65 1.70 -5.10 1.50 -0.65 -0.40 8.30 -4.90 16.20 -11.45 20.05 -4.20 2.45 -12.55 3.35 -18.65 2z"/>
  <path d="M230.90 569.50 c-2.80 -0.50 -8.15 -2.80 -9 -3.90 -0.35 -0.45 -0.40 -0.65 -0.15 -0.50 7.75 4.30 19.25 4.60 26.05 0.60 2.65 -1.55 6.80 -5.90 8.15 -8.60 1.10 -2.15 2.55 -8.10 2.55 -10.50 0 -0.75 0.25 -1.70 0.50 -2.10 0.45 -0.65 0.55 -0.65 0.95 -0.05 0.90 1.40 -1.25 11.05 -3.25 14.45 -2.80 4.70 -6.85 8.20 -11.45 9.80 -2.90 1 -10.85 1.45 -14.35 0.80z"/>
  <path d="M147 567.75 c-0.55 -0.65 2.15 -0.75 26.95 -0.75 l27.50 0 0.85 -1.55 c0.80 -1.55 0.80 -1.60 -1.20 -3.65 -4 -4.15 -8.65 -11.40 -7.85 -12.20 0.40 -0.40 0.80 0.15 4.20 5.40 1.35 2.05 3.50 4.90 4.80 6.25 l2.35 2.50 -0.95 1.70 c-0.50 0.95 -1.15 2 -1.50 2.35 -0.45 0.45 -7.30 0.60 -27.55 0.65 -23.75 0.10 -27 0 -27.60 -0.70z"/>
  <path d="M280.70 568.05 c-0.85 -0.85 1.50 -1.05 14.05 -1.05 7.85 0 14.25 -0.15 14.25 -0.30 0 -0.15 -1.55 -2.30 -3.50 -4.70 l-3.50 -4.40 0 -10.20 0 -10.25 12.15 -19.25 c6.70 -10.60 13.45 -20.95 15 -22.95 3.45 -4.60 7.80 -9.45 8.40 -9.45 1.25 0 0.10 2 -2.90 5.20 -1.90 1.95 -4.25 4.75 -5.25 6.20 l-1.90 2.60 30.05 0 c16.50 0 29.95 0.15 29.85 0.40 -0.05 0.20 -1.30 2.50 -2.70 5.10 -1.40 2.60 -3 5.95 -3.50 7.40 -0.50 1.40 -1.05 2.60 -1.20 2.60 -0.15 0 -0.60 -1.10 -0.95 -2.50 -0.85 -3.35 -3.15 -6.35 -5.70 -7.55 -1.55 -0.70 -3.25 -0.95 -6.70 -0.95 l-4.65 0 0 27.20 0 27.20 2.90 2.80 2.85 2.80 -11.10 0 c-6.15 0 -11.15 -0.05 -11.15 -0.15 0 -0.10 1.45 -1.35 3.25 -2.80 l3.25 -2.65 0 -25.25 0 -25.30 -3.70 0.30 c-2.05 0.15 -4.50 0.65 -5.45 1.10 -1.75 0.80 -3.85 3.90 -3.85 5.65 0 1.40 -0.50 2.60 -1.10 2.60 -0.85 0 -0.05 -4.35 1.15 -6.45 1.60 -2.85 3.50 -3.70 8.55 -3.95 4.15 -0.20 4.40 -0.30 4.40 -1.35 0 -1.35 -1.10 -1.75 -4.80 -1.75 -3.30 0 -7.25 1.20 -9.15 2.75 -1.50 1.30 -3.05 4.95 -3.05 7.25 0 2.65 -0.70 1.90 -2.50 -2.65 -2.70 -6.70 -5.05 -11.50 -5.50 -11 -0.45 0.45 -19.85 31.05 -22.30 35.10 l-1.70 2.80 0 9.55 0 9.55 4.50 5.30 c2.50 2.95 4.45 5.35 4.40 5.35 -1.70 0.15 -31.05 0.20 -31.20 0.05z"/>
  <path d="M347.95 567.70 c-0.50 -0.60 1 -0.70 11 -0.70 7.95 0 11.55 -0.15 11.55 -0.55 0 -0.30 -1.35 -2.05 -3 -3.90 l-3 -3.40 0 -26 0 -26 1.40 -0.30 c2.60 -0.50 8.65 0.55 9.95 1.75 1.75 1.60 1.40 1.95 -0.90 0.80 -1.10 -0.50 -3.60 -1.10 -5.50 -1.25 l-3.45 -0.30 0 25.25 0 25.25 1.10 1.45 c0.60 0.80 2.30 2.80 3.75 4.50 1.45 1.70 2.65 3.30 2.65 3.65 0 0.40 -3.25 0.55 -12.45 0.55 -10.20 -0.05 -12.60 -0.20 -13.10 -0.80z"/>
  <path d="M396.50 568.10 c-2.60 -0.90 2.75 -1.10 26.70 -1.10 l27.25 0 0.75 -1.10 c1.20 -1.65 1 -2.50 -1 -4.45 -2.40 -2.30 -4.85 -5.70 -6.45 -8.90 -2.10 -4.15 -0.90 -4 1.50 0.20 1.50 2.70 5.50 7.95 7.15 9.45 1.05 0.90 1.10 0.90 2.70 -0.10 2.40 -1.50 4.70 -4.05 5.75 -6.35 0.80 -1.80 0.90 -4.15 1.05 -25.85 l0.15 -23.85 -3.40 -3.25 -3.40 -3.25 13 0 13 0 -3.65 3.35 -3.65 3.35 4.20 12.25 c2.30 6.75 5.50 16.15 7.10 20.90 l2.85 8.70 0.95 -2.10 0.95 -2.05 -6.25 -18 c-3.45 -9.90 -6.25 -18.40 -6.25 -18.85 0.05 -0.85 5.40 -5.10 6.45 -5.10 1.20 0 0.40 0.95 -2.50 3 -2.25 1.55 -2.95 2.30 -2.70 2.95 0.20 0.45 2.90 8.25 6 17.30 4.25 12.35 5.75 16.25 6.05 15.50 0.25 -0.55 3.15 -8.55 6.50 -17.75 l6.05 -16.75 -3.05 -3.25 -3.05 -3.25 6.35 -0.15 c3.55 -0.05 9.20 -0.05 12.60 0 l6.20 0.15 -3.20 3.50 -3.20 3.50 0 25.70 0 25.75 2.85 2.90 2.85 2.90 -11.15 0 c-12.50 0 -12.05 0.25 -7.30 -3.55 l2.75 -2.20 0 -16.50 c0 -9.60 -0.20 -16.20 -0.45 -15.75 -0.25 0.40 -3.75 9.85 -7.80 21 -4.05 11.15 -7.60 20.50 -7.95 20.80 -0.60 0.60 -4.80 0.35 -4.80 -0.30 0 -0.25 0.95 -0.50 2.10 -0.60 l2.05 -0.15 8.45 -23.50 c7.70 -21.55 8.40 -23.75 8.35 -26.75 l0 -3.25 -0.90 2 c-0.45 1.10 -4.65 12.50 -9.35 25.35 l-8.45 23.40 -1.80 0 -1.80 0 -3.90 -11.60 c-2.20 -6.40 -5.25 -15.35 -6.85 -19.90 l-2.90 -8.25 0.15 16.50 c0.05 11.80 0.25 16.80 0.70 17.55 0.35 0.60 2.10 2.90 3.90 5.15 1.80 2.30 3.25 4.30 3.25 4.45 0 0.35 -80.55 0.50 -81.50 0.20z m79 -1.50 c0 -0.20 -0.35 -0.90 -0.80 -1.50 -0.75 -1.05 -1 -1.10 -10.70 -1.10 -9.70 0 -9.95 0.05 -10.70 1.10 -0.45 0.60 -0.80 1.30 -0.80 1.50 0 0.25 5.20 0.40 11.50 0.40 6.35 0 11.50 -0.15 11.50 -0.40z m-3.70 -5.30 c-3.10 -3.10 -3.30 -4.65 -3.30 -24.55 0 -17.30 0 -17.60 -1.20 -21.05 l-1.25 -3.45 0 20.60 c-0.05 22.05 0.15 24.65 2.30 27.20 1.15 1.35 4.65 3.60 5.10 3.20 0.05 -0.10 -0.65 -1 -1.65 -1.95z"/>
  <path d="M502 568.10 c-0.25 -0.10 -0.50 -0.40 -0.50 -0.65 0 -0.25 4.95 -0.45 11.75 -0.45 6.45 0 11.75 -0.15 11.75 -0.35 0 -0.25 -1.45 -2.05 -3.25 -4.05 l-3.25 -3.65 0 -25.95 0 -25.95 2.75 -2.05 c2.50 -1.85 4.25 -2.55 4.25 -1.60 0 0.20 -1.25 1.20 -2.75 2.25 l-2.75 1.90 0 25.45 0 25.50 4.25 4.70 c2.35 2.55 4.25 4.75 4.25 4.85 0 0.25 -25.80 0.25 -26.50 0.05z"/>
  <path d="M105.15 565.50 c-6.50 -1.20 -11.35 -4.10 -15.60 -9.40 -4.20 -5.20 -6 -10 -7.05 -18.85 -1.70 -13.85 3.25 -27.05 12.85 -34.30 4.55 -3.45 8.65 -4.70 15.15 -4.65 4.65 0 5.85 0.25 10.70 1.85 5.65 1.95 9.25 2.30 11.55 1.25 0.70 -0.30 1.35 -0.45 1.45 -0.35 0.15 0.10 -1.75 4.25 -4.20 9.20 -2.45 4.90 -4.55 8.65 -4.70 8.25 -0.15 -0.40 -0.50 -1.75 -0.85 -3 -2.60 -10.25 -11.90 -15.70 -20.20 -11.80 -6.40 2.95 -9.55 10.10 -10.50 23.55 -0.90 12.65 2.25 24.40 8.05 30.05 3.15 3.10 6 4.20 10.90 4.20 8.10 0 13.90 -5.80 15.40 -15.35 0.60 -3.75 1.10 -4.65 2.40 -4.65 2.85 0 1.60 10.50 -1.95 16.10 -1.95 3.05 -5.95 6.20 -9.20 7.15 -3.20 0.95 -10.75 1.35 -14.20 0.75z"/>
  <path d="M228 565.30 c-4.30 -0.95 -6.20 -1.80 -9.75 -4.40 -3.65 -2.70 -6.70 -6.60 -8.75 -11.05 -2.50 -5.55 -3.20 -9.25 -3.20 -17.60 -0.05 -6.35 0.15 -8.10 1.10 -11.50 1.75 -6.05 4.30 -10.45 8.65 -14.85 8 -8.15 16.90 -9.80 29.70 -5.45 4.75 1.65 8.75 2 11 0.95 0.70 -0.30 1.35 -0.45 1.50 -0.30 0.15 0.10 -1 2.45 -2.50 5.20 -1.50 2.70 -3.50 6.70 -4.40 8.80 -0.85 2.15 -1.75 3.90 -1.90 3.90 -0.15 0 -0.55 -1.10 -0.85 -2.45 -3.05 -13.20 -16.25 -18.65 -24.45 -10.10 -2.45 2.60 -3.85 5.30 -5.25 10.35 -0.95 3.45 -1.10 5.25 -1.10 13.95 0 8.70 0.15 10.50 1.10 13.95 1.55 5.65 3.20 8.90 5.95 11.85 3.40 3.60 5.50 4.60 10.70 4.85 3.60 0.20 4.65 0.05 6.85 -0.90 4.90 -2.10 8.10 -6.95 9.50 -14.25 0.60 -3.25 1 -4.30 1.75 -4.55 3.50 -1.10 3 8.10 -0.85 15.10 -2.10 3.80 -6.60 7.35 -10.40 8.20 -4.25 0.90 -10.80 1.05 -14.40 0.30z"/>
  <path d="M285.50 560.70 l3.50 -3.30 0 -10.15 0 -10.15 -9.50 -14.70 c-8.35 -12.85 -10.05 -15.15 -13.80 -18.75 l-4.30 -4.15 12.30 0 c6.75 0 12.30 0.20 12.30 0.40 0 0.20 -1.25 1.60 -2.75 3.10 -1.55 1.50 -2.70 2.95 -2.65 3.25 0.25 0.80 16.10 24.75 16.45 24.75 0.15 0 0.55 -0.55 0.90 -1.20 0.60 -1.10 0.15 -1.90 -6.45 -11.85 -3.95 -5.85 -7.25 -11 -7.35 -11.45 -0.25 -1 4.10 -5.10 5.20 -4.90 0.70 0.10 0.40 0.60 -1.25 2.10 -1.15 1.10 -2.10 2.25 -2.10 2.55 0 0.35 2.55 4.50 5.65 9.30 3.10 4.80 6.10 9.45 6.65 10.40 l1.05 1.65 6.10 -9.60 c10.95 -17.20 11.70 -19.60 7.75 -24.80 -1.15 -1.45 -1.50 -2.30 -1.10 -2.40 0.35 -0.10 3.45 -1 6.85 -2 3.40 -1 8.60 -2.90 11.60 -4.25 3 -1.35 5.45 -2.30 5.45 -2.20 0 0.15 -1.20 1.60 -2.70 3.20 -5.45 5.90 -9.40 11.60 -21.75 31.35 l-12.55 20.10 0 10.20 0 10.20 3.50 3.30 3.50 3.30 -12 0 -12 0 3.50 -3.30z"/>
  <path d="M143 563.15 c0.05 -0.25 1.60 -1.50 3.50 -2.85 l3.50 -2.45 0 -11.25 0 -11.25 -1.75 0.30 c-1 0.15 -2.50 0.65 -3.35 1.05 -1.80 0.95 -2.90 1 -2.90 0.25 0 -0.65 3.60 -2.25 6.15 -2.70 1.50 -0.30 1.85 -0.55 1.85 -1.55 0 -1.05 -0.25 -1.20 -1.95 -1.20 -1.10 0 -3.10 0.60 -4.85 1.50 -1.60 0.80 -3 1.35 -3.10 1.25 -0.35 -0.35 1.35 -3.05 2.75 -4.30 1.75 -1.65 2.90 -2.25 5.25 -2.65 l1.85 -0.35 0.15 -10.55 0.15 -10.60 -3.20 -2.65 c-1.80 -1.45 -3.45 -2.65 -3.65 -2.65 -0.20 0 -0.40 -0.20 -0.40 -0.50 0 -0.35 9.15 -0.50 26.50 -0.50 14.60 0 26.50 0.10 26.50 0.25 0 0.15 -0.90 1.40 -2 2.80 -1.10 1.40 -3.05 4.65 -4.35 7.25 l-2.30 4.70 -1.20 -2.15 c-2.40 -4.20 -3.80 -5.85 -5.90 -6.85 -2.75 -1.35 -9.55 -2.05 -15.60 -1.65 l-4.65 0.30 0 11.45 0 11.40 1.75 0 1.75 0 0 -10.25 0 -10.25 6.30 0 c7.75 0 10.05 0.55 12.95 3.10 3.15 2.80 2.80 3.25 -0.70 0.85 -2.50 -1.75 -3.45 -2.10 -6.60 -2.45 -2.05 -0.20 -5.25 -0.25 -7.20 -0.05 l-3.50 0.30 0.10 9 c0.10 4.95 0.15 9.15 0.15 9.40 0 0.20 2.05 0.35 4.50 0.35 l4.50 0 3.15 -4.30 3.10 -4.25 0.15 5.25 c0.05 2.90 0.05 7.70 0 10.65 l-0.15 5.40 -3.15 -4.15 -3.15 -4.15 -6.85 0.15 -6.85 0.15 -0.15 13.90 -0.10 13.85 1.75 0 1.75 0 0 -12.75 0 -12.75 5.70 0 c3.30 0 5.85 0.20 6.05 0.50 0.20 0.30 -1.55 0.50 -4.95 0.50 l-5.25 0 -0.15 10.90 c-0.10 5.95 -0.10 11.50 0 12.30 l0.20 1.45 5.80 -0.30 c3.55 -0.15 6.85 -0.60 8.30 -1.15 3.10 -1.10 6.05 -3.95 8.25 -8.15 l1.70 -3.20 1.35 3.85 c1.45 4.05 3.90 8.10 6.50 10.55 0.80 0.80 1.50 1.60 1.50 1.85 0 0.20 -12.50 0.40 -27.75 0.40 -15.25 0 -27.75 -0.15 -27.75 -0.35z"/>
  <path d="M392.50 563.15 c0 -0.25 1.60 -1.50 3.50 -2.90 l3.45 -2.50 0.05 -11.10 0 -11.15 -1.30 0 c-0.70 0 -2.40 0.50 -3.75 1.05 -2.40 1.05 -3.40 1.05 -2.75 0 0.40 -0.60 5.50 -2.55 6.80 -2.55 0.75 0 1 -0.35 1 -1.30 0 -1.30 -0.05 -1.35 -2.75 -1.05 -1.70 0.15 -3.70 0.80 -5.05 1.60 -1.25 0.75 -2.35 1.25 -2.50 1.15 -0.10 -0.15 0.45 -1.25 1.30 -2.55 1.55 -2.45 4 -4 7.15 -4.60 l1.85 -0.35 0 -10.70 0 -10.65 -3.50 -2.65 c-1.90 -1.45 -3.45 -2.80 -3.50 -3 0 -0.25 11.90 -0.40 26.45 -0.40 l26.50 0 -2.75 4 c-1.50 2.20 -3.50 5.60 -4.40 7.55 l-1.60 3.60 -1.80 -3.20 c-2.05 -3.60 -3.95 -5.60 -6.15 -6.45 -2.40 -0.90 -9.55 -1.50 -14.60 -1.15 l-4.65 0.30 0 11.45 0 11.45 1.65 -0.15 1.60 -0.15 0 -5 c0 -2.75 0.05 -7.30 0.15 -10.10 l0.10 -5.15 6.15 0 c4.05 0 7.05 0.25 8.75 0.75 2.65 0.80 5.25 2.60 6.15 4.35 0.65 1.20 0.45 1.10 -3.30 -1.55 l-2.45 -1.80 -7.15 -0.15 -7.15 -0.15 0 9.50 0 9.55 4.70 0 4.75 0 3.05 -4.25 c1.70 -2.35 3.15 -4.25 3.25 -4.25 0.05 0 0.20 4.75 0.20 10.50 0.05 5.80 -0.10 10.50 -0.30 10.50 -0.20 -0.05 -1.70 -1.85 -3.30 -4 l-2.95 -4 -6.95 0 -6.95 0 0 14.05 0 14 1.65 -0.15 1.60 -0.15 0 -7.75 c0 -4.25 0.05 -9.95 0.15 -12.65 l0.10 -4.90 5.60 0.15 c7.15 0.20 7.85 1.15 0.80 1.15 l-5.15 0 -0.15 12.15 -0.10 12.10 4.35 0 c5.65 0 10.80 -1.10 13.25 -2.85 1.20 -0.80 2.85 -2.85 4.30 -5.25 1.30 -2.10 2.50 -3.85 2.65 -3.90 0.15 0 0.65 1.30 1.15 2.90 1.15 3.65 2.60 6.20 5.85 10.05 l2.55 3.05 -27.80 0 c-15.30 0 -27.80 -0.15 -27.80 -0.35z"/>
  <path d="M106.70 559 c-7.15 -4.60 -11.15 -20.55 -9.20 -36.40 1.15 -8.95 3.65 -13.80 8.45 -16.20 4.40 -2.25 8.90 -1.75 12.35 1.40 2.20 1.95 2.10 1.95 -1.95 0 -2.45 -1.20 -3.40 -1.40 -5.90 -1.20 -5.45 0.40 -8.70 3.95 -10.80 11.90 -1.25 4.70 -1.25 19.65 0.05 25.25 1.70 7.35 5 12.80 9.60 15.60 0.95 0.60 0.95 0.60 -0.05 0.60 -0.55 0 -1.70 -0.40 -2.55 -0.95z"/>
  <path d="M231.10 559.15 c-6.15 -3 -10.10 -14.10 -10.10 -28.10 0.05 -11.80 1.65 -18.20 5.75 -22.40 2.85 -2.90 5.55 -3.95 9.35 -3.50 2.65 0.35 5.70 1.75 7.10 3.30 1.20 1.35 1.10 1.35 -2.40 -0.45 -7.05 -3.55 -13.55 -0.75 -16.30 7.10 -1.65 4.70 -2.15 9.50 -1.85 18.40 0.25 9 0.95 12.60 3.40 17.85 1.50 3.15 3.40 5.45 6.20 7.50 1.75 1.30 1.20 1.45 -1.15 0.30z"/>
  <path d="M182.85 541.65 c-0.20 -0.15 -0.35 -5.25 -0.35 -11.25 0 -9.35 0.10 -10.90 0.75 -10.90 0.65 0 0.75 1.60 0.75 11.25 0 10.25 -0.15 11.90 -1.15 10.90z"/>
  <path d="M432.35 541.65 c-0.20 -0.15 -0.35 -5.25 -0.35 -11.25 0 -8.55 0.15 -10.95 0.65 -10.80 0.45 0.20 0.65 3 0.75 11.30 0.10 10.10 -0.05 11.80 -1.05 10.75z"/>
  <path d="M128 520.90 c0 -1.60 8.80 -17.90 9.60 -17.90 0.85 0 0.30 1.45 -2.20 6.05 -1.45 2.60 -3.45 6.45 -4.40 8.60 -1.55 3.40 -3 4.95 -3 3.25z"/>
  <path d="M251.85 521.20 c-0.20 -0.20 1.15 -3.15 2.90 -6.65 4.80 -9.35 6.25 -11.75 6.85 -11.15 0.30 0.30 -0.35 2 -2.05 4.95 -1.35 2.45 -3.45 6.40 -4.60 8.80 -2 4.20 -2.40 4.70 -3.10 4.05z"/>
  <path d="M382.70 517.25 c-0.65 -1.70 5.45 -14.55 7.20 -15.15 1 -0.30 0.70 0.90 -1.10 3.85 -0.95 1.55 -2.55 4.85 -3.55 7.30 -2.15 5.20 -2.10 5.15 -2.55 4z"/>
  <path d="M189.50 516.35 c0 -1.80 7.40 -13.85 8.55 -13.85 0.80 0 0.50 1.05 -0.95 2.95 -1.90 2.45 -4.30 6.30 -5.65 9.20 -1.10 2.30 -1.95 3 -1.95 1.70z"/>
  <path d="M438.85 516.70 c-0.65 -0.65 5.85 -12.05 7.85 -13.65 1.85 -1.55 1.20 0.10 -1.85 4.65 -1.80 2.60 -3.65 5.80 -4.15 7.05 -0.95 2.20 -1.25 2.55 -1.85 1.95z"/>
  <path d="M295 499.20 c-3.40 -1.45 -6 -4.80 -6 -7.70 0 -8.40 12.35 -12.15 18.80 -5.70 2.70 2.65 3.20 5.15 1.80 8.35 -2.15 4.85 -9.30 7.35 -14.60 5.05z"/>
  <path d="M299.70 432.55 c-0.10 -0.10 -0.20 -0.85 -0.20 -1.60 l0 -1.40 4.65 -0.15 4.60 -0.15 0.15 -2.15 0.15 -2.20 -4.55 0.40 -4.55 0.35 0.15 -1.70 0.15 -1.70 4.40 -0.15 4.35 -0.15 0 -2.45 0 -2.50 -5 0 -5 0 0 -1.45 0 -1.40 6.25 -0.35 c3.45 -0.20 6.45 -0.25 6.70 -0.10 0.20 0.15 0.45 3.15 0.50 6.65 0.05 3.50 0.20 7.60 0.35 9 0.25 2 0.15 2.70 -0.35 2.85 -0.90 0.30 -12.45 0.60 -12.75 0.35z"/>
  <path d="M291.20 427.15 c0.20 -3 0.45 -6.45 0.60 -7.70 l0.25 -2.30 -1.90 -0.30 c-1.05 -0.20 -3.10 -0.35 -4.50 -0.35 -2.30 0 -2.65 -0.15 -2.65 -0.95 0 -2.60 0.65 -2.70 9.95 -1.75 l2.65 0.30 -0.30 6.05 c-0.20 3.35 -0.45 7.50 -0.60 9.25 l-0.30 3.10 -1.75 0 -1.75 0 0.30 -5.35z"/>
  <path d="M319.50 429.10 c-2.20 -2.15 -3 -4.60 -3 -8.85 0 -5.20 2 -7.25 8.05 -8.20 5.75 -0.95 5.15 -1.65 6.40 7.60 0.65 4.45 1.25 8.60 1.40 9.15 0.20 1 -0.10 1.10 -3.60 1.65 -6.30 0.90 -7.10 0.80 -9.25 -1.35z m8.65 -1.95 c0.15 -0.25 -0.15 -3 -0.60 -6.15 l-0.85 -5.75 -1.95 0.10 c-2.55 0.15 -4.10 1 -4.45 2.35 -0.75 2.80 0 7.10 1.60 8.95 0.55 0.60 1.50 0.85 3.40 0.85 1.45 0 2.75 -0.15 2.85 -0.35z"/>
  <path d="M264.30 429.25 c-3.25 -0.70 -6 -1.30 -6.15 -1.40 -0.45 -0.45 0.50 -2.85 1.10 -2.85 0.35 0 2.35 0.35 4.50 0.80 2.10 0.45 3.90 0.70 4 0.60 0.10 -0.05 0.30 -0.95 0.50 -1.95 l0.35 -1.85 -2.45 -0.50 c-1.30 -0.30 -3.25 -0.70 -4.30 -0.85 -1.80 -0.35 -1.90 -0.50 -1.60 -1.70 0.20 -0.70 0.40 -1.40 0.55 -1.50 0.20 -0.20 6.90 0.90 8 1.30 0.35 0.10 0.75 -0.85 1.05 -2.30 0.30 -1.40 0.50 -2.55 0.45 -2.55 -0.05 -0.05 -2.05 -0.40 -4.55 -0.90 l-4.50 -0.85 -0.15 -1.65 c-0.10 -0.85 0 -1.60 0.25 -1.60 0.70 0 12.75 2.40 12.90 2.60 0.25 0.25 -3.45 18.40 -3.75 18.35 -0.15 0 -2.90 -0.55 -6.20 -1.20z"/>
  <path d="M345.15 424.25 c-1.95 -1.95 -1.80 -2.45 0.65 -2.95 1.15 -0.25 1.65 -0.15 1.85 0.35 0.40 1.05 2 1.30 3.80 0.55 1.25 -0.55 1.60 -0.95 1.45 -1.80 -0.15 -1.05 -0.50 -1.20 -4.35 -1.50 -5 -0.40 -6.50 -1.25 -7.45 -4.25 -1.25 -3.90 1.40 -7.20 6.30 -7.95 2.70 -0.40 5 0.55 6.55 2.75 l1.10 1.50 -1.55 0.80 c-1.55 0.80 -1.60 0.80 -2.75 -0.45 -2.15 -2.35 -6.25 -1.25 -6.25 1.65 0 1.75 0.65 2.05 4.80 2.05 3.70 0 5.75 0.85 6.60 2.75 1.95 4.25 -1.40 8.25 -6.95 8.25 -1.70 0 -2.35 -0.30 -3.80 -1.75z"/>
  <path d="M245.70 424.80 c-0.85 -0.40 -2 -1.30 -2.60 -2.05 -1.20 -1.50 -1.50 -4.75 -0.45 -4.75 1.75 0.05 2.75 0.70 3 1.95 0.45 2.25 4.35 3.45 5.30 1.60 0.60 -1.10 0.05 -1.90 -2.45 -3.55 -4.65 -3.10 -5.80 -5.45 -4.25 -8.70 1.10 -2.35 3.25 -3.50 6 -3.20 4.55 0.55 7.25 3 7.25 6.65 0 1.75 -0.05 1.80 -1.60 1.65 -1.40 -0.15 -1.65 -0.40 -1.95 -1.90 -0.45 -2.05 -1.60 -3 -3.70 -3 -3.45 0 -3.80 2.85 -0.60 4.70 3.50 2.10 5.10 4.05 5.10 6.35 0 4.05 -4.60 6.15 -9.05 4.25z"/>
  <path d="M230.15 418.90 c-3.40 -1.40 -6.15 -2.80 -6.15 -3.10 0 -0.35 0.30 -1 0.65 -1.50 0.60 -0.85 0.80 -0.85 2.55 -0.10 1.05 0.45 2.10 0.80 2.30 0.80 0.20 0 1.70 -3.15 3.25 -7 1.60 -3.85 3.10 -7 3.35 -7 0.40 0 2.30 0.85 2.80 1.25 0.05 0.05 -1.10 3.10 -2.65 6.75 -1.50 3.70 -2.75 6.95 -2.75 7.30 0 0.30 1 0.95 2.20 1.40 2.15 0.85 2.20 0.90 1.70 2.35 -0.25 0.80 -0.65 1.45 -0.80 1.40 -0.20 0 -3.10 -1.15 -6.45 -2.55z"/>
  <path d="M363.25 419 c-4.90 -2.45 -7.30 -10.70 -4.30 -14.90 2.15 -3.05 7.40 -4.45 10.50 -2.90 3 1.55 6.05 6.80 6.05 10.25 0 1.95 -1.15 4.60 -2.50 5.90 -2.85 2.65 -6.45 3.30 -9.75 1.65z m6.95 -3.75 c1.60 -1.50 1.75 -4.45 0.35 -7.50 -1.15 -2.55 -2.05 -3.30 -4.40 -3.60 -2.30 -0.30 -4.40 1.10 -4.90 3.30 -0.45 2.10 0.70 5.40 2.55 7.35 2 2.15 4.40 2.30 6.40 0.45z"/>
  <path d="M215.55 412.15 c-1.50 -0.75 -1.65 -0.95 -1.40 -2.60 0.15 -1 0.70 -5.25 1.15 -9.40 0.50 -4.20 1.05 -7.85 1.20 -8.15 0.25 -0.35 0.85 -0.25 1.85 0.30 1.40 0.80 1.45 1.05 1.25 3.15 l-0.20 2.30 3.05 1.50 3.05 1.45 1.45 -1.40 c1.40 -1.35 1.55 -1.35 3.25 -0.75 1 0.35 1.75 0.80 1.70 0.95 -0.15 0.30 -11.15 10.45 -13.65 12.60 -0.95 0.80 -1.15 0.80 -2.70 0.05z m5.40 -6.85 l2.20 -2.25 -1.90 -0.75 c-2.45 -1.05 -2.75 -1 -2.75 0.35 0 0.60 -0.15 1.95 -0.30 3 -0.20 1 -0.10 1.85 0.15 1.85 0.25 0 1.40 -1 2.60 -2.20z"/>
  <path d="M380.85 410.50 l-1.40 -1.10 1.10 -1.20 c1.15 -1.25 2.45 -1.60 2.45 -0.70 0 1.05 3.50 0.50 4.75 -0.75 1.55 -1.50 1.55 -3.05 0.20 -6 -2.75 -5.90 -8.95 -6.45 -8.95 -0.80 0 1.75 -0.15 1.95 -1.50 2.15 -0.85 0.15 -1.60 0.10 -1.75 0 -0.15 -0.15 -0.25 -1.35 -0.25 -2.65 0 -1.85 0.30 -2.75 1.35 -4 4.15 -4.90 10.80 -3.50 14.10 3.10 1.80 3.60 1.95 5.85 0.55 8.65 -1.40 2.85 -3.15 3.95 -6.50 4.20 -2.25 0.15 -3 0 -4.15 -0.90z"/>
  <path d="M200.60 403.40 c-3.85 -2.60 -5.60 -4.80 -5.60 -6.95 0 -3.55 3.35 -9.05 6.55 -10.70 2.70 -1.45 4.95 -1 9.35 1.90 l4.10 2.65 -5.05 7.45 c-2.80 4.15 -5.20 7.65 -5.40 7.85 -0.15 0.15 -1.95 -0.80 -3.95 -2.20z m6.10 -7.45 c1.85 -2.75 3.30 -5.10 3.20 -5.15 -1.70 -1.25 -4.05 -2.30 -5.05 -2.30 -1.60 0 -3.90 2.25 -5.35 5.25 -0.95 1.90 -1 2.50 -0.55 3.65 0.50 1.20 3.25 3.60 4.10 3.60 0.15 0 1.80 -2.25 3.65 -5.05z"/>
  <path d="M397.65 402.35 c-4.25 -6.35 -8.65 -13.40 -8.65 -13.75 0 -0.50 2.45 -2.30 2.75 -2 0.70 0.75 9.75 15 9.75 15.35 0 0.35 -2.15 2.05 -2.60 2.05 -0.10 0 -0.65 -0.75 -1.25 -1.65z"/>
  <path d="M403.80 396.25 c-0.95 -0.75 -0.95 -0.75 0.15 -1.95 0.90 -0.95 1.45 -1.15 3.25 -0.95 1.90 0.25 2.25 0.10 3.45 -1.35 1.80 -2.10 1.75 -4.30 -0.05 -6.80 -2 -2.70 -2.75 -3.25 -5.05 -3.55 -1.80 -0.25 -2.20 -0.10 -3.80 1.50 -1.90 1.90 -2.10 2.65 -1.10 4.10 0.65 0.85 0.75 0.85 2.25 -0.25 1.30 -0.95 1.70 -1.05 2.35 -0.50 1.25 1.05 0.85 2.15 -1.50 3.90 -1.25 0.90 -2.55 1.75 -2.90 1.85 -0.30 0.15 -1.60 -1 -2.80 -2.55 -2.10 -2.65 -2.15 -2.85 -1.65 -4.60 0.65 -2.20 3.70 -5.50 5.95 -6.40 3.30 -1.40 5.95 -0.80 9.20 2.15 5.65 5.10 5.05 12.30 -1.40 15.60 -1.50 0.80 -5.20 0.65 -6.35 -0.20z"/>
  <path d="M184.25 391.35 c-0.80 -0.40 -2.35 -1.65 -3.45 -2.85 -1.85 -2.05 -1.90 -2.20 -1.70 -5.25 0.25 -3.80 2 -6.70 5.35 -8.85 3.85 -2.45 7.80 -1.80 10.95 1.80 2.65 3.05 2.70 6.35 0.10 10.45 -2.65 4.20 -7.70 6.30 -11.25 4.70z m6.20 -4.60 c2.10 -1.90 3.55 -4.45 3.55 -6.25 0 -0.60 -0.65 -1.75 -1.45 -2.55 -1.90 -1.85 -4.10 -1.95 -6.40 -0.15 -3.85 2.90 -4.70 6.70 -2.20 9.25 2.05 2.05 4 1.95 6.50 -0.30z"/>
  <path d="M418.75 382.55 c-2.15 -1.30 -5.10 -4.55 -5.70 -6.20 -0.75 -2 -0.70 -5.15 0.20 -6.80 1.75 -3.40 6.30 -5.60 9.50 -4.55 6.70 2.20 10.30 9.75 7 14.60 -2.55 3.75 -7.60 5.10 -11 2.95z m7.50 -3.80 c0.95 -0.90 1.25 -1.75 1.25 -3.30 0 -1.85 -0.30 -2.40 -2.45 -4.50 -2.10 -2.15 -2.65 -2.45 -4.50 -2.45 -1.55 0 -2.40 0.30 -3.30 1.25 -2.25 2.20 -1.45 5.70 2 8.70 2.30 2 5.20 2.15 7 0.30z"/>
  <path d="M163.55 371.40 c-1.70 -2.05 -3.15 -4.35 -3.35 -5.25 -0.45 -2.25 0.55 -4.80 2.80 -7.10 3.65 -3.75 7.70 -5 10.80 -3.40 1.65 0.85 6.70 6.20 6.70 7.10 0 0.40 -8.45 7.90 -12.80 11.40 -1.10 0.85 -1.15 0.80 -4.15 -2.75z m7.75 -4.95 c2.35 -1.95 4.35 -3.80 4.50 -4.05 0.35 -0.60 -2.60 -3.75 -3.85 -4.15 -1.90 -0.65 -7.40 3.45 -8.15 6.10 -0.20 0.60 -0.10 1.65 0.25 2.25 0.60 1.20 2.45 3.40 2.85 3.40 0.15 0 2.10 -1.60 4.40 -3.55z"/>
  <path d="M436.45 360.25 l-5.70 -4.80 -1.75 1.90 c-0.95 1.05 -2.25 2.55 -2.85 3.30 -0.95 1.25 -1.20 1.35 -2.10 0.75 -0.60 -0.35 -1.05 -0.95 -1.05 -1.30 0 -0.75 6.90 -9.10 7.50 -9.10 0.30 0 11.85 9.35 13.90 11.25 0.25 0.25 -1.45 2.75 -1.85 2.75 -0.20 0 -2.95 -2.15 -6.10 -4.75z"/>
  <path d="M150.15 354.25 l-3.55 -5.20 1.20 -0.75 c0.65 -0.45 1.35 -0.80 1.55 -0.75 0.20 0 1.50 1.70 2.85 3.70 2.55 3.90 2.55 3.95 4.95 2.15 0.85 -0.60 0.70 -0.90 -1.60 -4.30 l-2.50 -3.60 1.10 -0.75 c0.60 -0.40 1.25 -0.75 1.40 -0.75 0.20 0 1.40 1.45 2.70 3.25 1.25 1.80 2.45 3.25 2.60 3.25 0.60 0 3.65 -2.10 3.65 -2.55 0 -0.25 -1.15 -2.15 -2.60 -4.20 -2.50 -3.60 -2.55 -3.75 -1.65 -4.50 0.55 -0.40 1.25 -0.75 1.55 -0.75 0.50 0 6.95 9.10 7.30 10.35 0.15 0.55 -14.05 10.65 -14.95 10.65 -0.20 0 -2 -2.35 -4 -5.25z"/>
  <path d="M443.70 355.55 c-1.90 -0.50 -5 -2.65 -6.65 -4.65 -4.25 -5.20 -0.25 -13.40 6.55 -13.40 3.80 0 8.20 2.70 9.95 6.05 3.25 6.40 -2.80 13.80 -9.85 12z m5.05 -3.85 c1 -0.40 2.25 -2.80 2.25 -4.40 0 -2.85 -5.70 -6.85 -8.70 -6.10 -3.15 0.80 -4.35 4.80 -2.25 7.50 1.95 2.50 6.15 3.95 8.70 3z"/>
  <path d="M451.50 335.95 c-4.25 -2.20 -7.85 -4.10 -7.95 -4.25 -0.10 -0.10 0.10 -0.80 0.40 -1.60 0.70 -1.75 2.45 -2.10 9.60 -2.10 2.45 0 4.45 -0.15 4.45 -0.40 0 -0.20 -2.15 -1.45 -4.75 -2.75 -2.60 -1.30 -4.75 -2.65 -4.75 -3 0 -0.35 0.30 -1.10 0.70 -1.65 0.70 -0.90 1.05 -0.80 8.90 3.25 4.50 2.30 8.20 4.25 8.30 4.35 0.10 0.05 -0.20 0.80 -0.65 1.65 -0.70 1.40 -1 1.55 -3.20 1.55 -1.30 0 -4.45 0.15 -7 0.35 l-4.60 0.30 5.15 2.75 c2.85 1.50 5.20 2.80 5.30 2.85 0.35 0.25 -1.10 2.75 -1.60 2.75 -0.30 0 -4.05 -1.85 -8.30 -4.05z"/>
  <path d="M138.80 335.35 c-0.45 -1.15 -0.80 -2.25 -0.80 -2.45 0 -0.15 2 -1.95 4.50 -3.95 2.45 -2 4.40 -3.70 4.30 -3.85 -0.15 -0.10 -2.50 0.30 -5.35 0.85 -2.80 0.60 -5.50 1.05 -5.95 1.05 -0.55 0 -1.15 -0.80 -1.75 -2.30 -0.45 -1.25 -0.75 -2.35 -0.65 -2.45 0.40 -0.40 16.50 -7.80 16.60 -7.65 0.35 0.35 1.30 2.35 1.30 2.65 0 0.15 -2.50 1.45 -5.55 2.85 -3.05 1.45 -5.40 2.65 -5.15 2.75 0.25 0.10 3.05 -0.40 6.20 -1.10 l5.75 -1.20 0.85 1.10 c0.50 0.60 0.85 1.35 0.75 1.70 -0.05 0.35 -2.55 2.50 -5.55 4.85 -3 2.40 -5.35 4.30 -5.20 4.30 0.15 0 2.90 -1.25 6.10 -2.75 3.20 -1.50 6 -2.75 6.25 -2.75 0.20 0 0.65 0.55 0.95 1.25 0.50 1.10 0.45 1.35 -0.55 1.95 -1.45 0.95 -15.15 7.30 -15.75 7.30 -0.25 0 -0.85 -0.95 -1.30 -2.15z"/>
  <path d="M464.10 319.70 c0.15 -1.70 0.35 -2 1.60 -2.20 1 -0.15 1.80 -0.80 2.45 -1.90 1.45 -2.45 0.50 -4.35 -2.95 -5.95 -3.95 -1.80 -5.70 -1.95 -7.35 -0.65 -1.70 1.35 -1.85 4 -0.35 5.50 1.30 1.30 1.25 1.60 -0.20 2.95 l-1.20 1.10 -1.55 -1.90 c-4 -4.85 -0.10 -12.10 6.55 -12.15 3.05 0 8.15 2.60 9.75 4.95 2.10 3.10 1.15 8.45 -1.90 10.65 -0.65 0.45 -2.05 1 -3.10 1.20 l-1.90 0.30 0.15 -1.90z"/>
  <path d="M128.70 311.40 c-1 -3.10 -1.95 -5.90 -2.05 -6.20 -0.25 -0.65 2.70 -1.85 3 -1.30 0.15 0.20 0.85 2.20 1.60 4.50 1.05 3.15 1.55 4.10 2.10 3.90 0.40 -0.20 1.30 -0.45 2 -0.60 0.65 -0.20 1.10 -0.60 1 -0.90 -0.95 -2.55 -2.50 -7.80 -2.30 -8 0.10 -0.10 0.80 -0.35 1.50 -0.55 1.20 -0.30 1.30 -0.15 2.45 3.50 0.65 2.10 1.35 3.90 1.60 4.05 0.60 0.40 4.40 -0.90 4.40 -1.45 0 -0.30 -0.60 -2.40 -1.35 -4.70 -0.75 -2.25 -1.25 -4.20 -1.10 -4.35 0.10 -0.10 0.75 -0.35 1.45 -0.55 1.25 -0.30 1.35 -0.10 3.25 5.60 1.10 3.25 2 6.10 2 6.35 0 0.35 -8.35 3.35 -16.85 6.05 -0.65 0.25 -1.15 -0.80 -2.70 -5.35z"/>
  <path d="M474.25 304.10 c-0.55 -0.10 -1.15 -0.35 -1.35 -0.55 -0.20 -0.15 0.15 -2.30 0.85 -4.70 1.30 -4.75 1.30 -4.80 -1.50 -5 -1.35 -0.10 -1.45 0.05 -2.45 3.80 -0.85 3.25 -1.15 3.85 -2 3.85 -2.20 0 -2.30 -0.55 -1.10 -4.90 l1.20 -4.10 -2 -0.55 c-1.10 -0.30 -2.25 -0.40 -2.60 -0.30 -0.30 0.15 -0.85 1.30 -1.20 2.65 -0.35 1.35 -0.85 3.30 -1.15 4.35 -0.50 1.85 -1.40 2.35 -2.85 1.40 -0.55 -0.35 -0.35 -1.60 0.95 -6.60 0.90 -3.40 1.70 -6.30 1.80 -6.40 0.10 -0.15 17.60 4.35 18 4.65 0.20 0.15 -2.90 11.50 -3.30 12.05 -0.15 0.30 -0.75 0.45 -1.30 0.35z"/>
  <path d="M124.80 298.50 c-0.30 -1.85 -0.20 -2.10 1.95 -4.05 1.25 -1.15 2.25 -2.25 2.25 -2.45 0 -0.20 -1.35 -0.75 -3 -1.25 -2.75 -0.85 -3.05 -1.05 -3.50 -2.70 -0.25 -0.95 -0.40 -1.85 -0.25 -1.95 0.10 -0.10 2.35 0.50 5 1.40 l4.85 1.60 3.85 -3.80 c2.10 -2.10 3.95 -3.80 4.15 -3.80 0.15 0 0.45 0.90 0.65 1.95 0.30 1.85 0.20 2.05 -2.20 4.30 -1.40 1.35 -2.45 2.55 -2.25 2.70 0.15 0.15 1.65 0.75 3.35 1.35 2.85 0.95 3.15 1.15 3.55 2.85 0.25 1 0.35 1.95 0.20 2.10 -0.15 0.15 -2.55 -0.55 -5.40 -1.55 l-5.15 -1.75 -3.55 3.50 c-1.95 1.95 -3.70 3.55 -3.85 3.55 -0.20 0 -0.45 -0.90 -0.65 -2z"/>
  <path d="M477.20 284.75 l0.30 -2.70 -1.60 -0.30 c-0.90 -0.15 -4.15 -0.70 -7.20 -1.20 -3.10 -0.50 -5.80 -1.05 -6.10 -1.25 -0.50 -0.30 -0.20 -2.65 0.40 -3.05 0.20 -0.15 3.60 0.30 7.55 0.95 3.95 0.65 7.35 1.10 7.60 0.95 0.20 -0.10 0.35 -0.85 0.35 -1.65 0 -0.75 0.15 -1.75 0.30 -2.20 0.35 -0.95 2.65 -1.05 3 -0.15 0.15 0.40 -0.20 3.40 -0.80 6.70 -0.55 3.30 -1 6.15 -1 6.35 0 0.15 -0.70 0.30 -1.55 0.30 l-1.60 0 0.35 -2.75z"/>
  <path d="M121.30 280.70 c-0.20 -0.75 -0.15 -1.50 0.05 -1.75 0.55 -0.50 17.60 -3.05 18.20 -2.70 0.25 0.20 0.45 0.95 0.45 1.75 0 1.65 0.75 1.40 -9.75 3 -8.50 1.30 -8.55 1.30 -8.95 -0.30z"/>
  <path d="M124 272.90 c-1.25 -0.65 -2.75 -1.95 -3.40 -2.90 -1 -1.45 -1.15 -2.20 -1 -4.70 0.20 -2.65 0.40 -3.10 2.05 -4.60 1 -0.95 2.05 -1.70 2.30 -1.70 0.25 0 0.70 0.70 1 1.60 0.50 1.45 0.45 1.70 -0.65 2.60 -1.65 1.45 -1.90 2.55 -1.10 4.55 0.90 2.10 2.45 2.60 7.40 2.35 5.20 -0.25 6.80 -6.35 2 -7.85 -1 -0.30 -1.10 -0.55 -0.80 -1.90 0.40 -2.05 0.40 -2.05 2 -1.65 3.55 0.90 5.95 5.75 4.70 9.50 -1.60 4.95 -9.20 7.35 -14.50 4.70z"/>
  <path d="M477.05 260.70 c-5.15 -3.15 -5.25 -3.20 -8.90 -3.20 l-3.65 0 0 -1.75 0 -1.75 4.15 0 c4.10 -0.05 4.15 -0.05 9.35 -3 l5.25 -2.95 0.15 1.50 c0.25 2.35 -0.10 2.80 -3.65 4.55 -1.80 0.90 -3.20 1.80 -3.10 2.05 0.05 0.20 1.55 1.25 3.30 2.25 1.75 1 3.15 2 3.10 2.25 0 0.20 -0.05 1.05 -0.05 1.85 0 0.85 -0.15 1.50 -0.35 1.45 -0.25 0 -2.75 -1.45 -5.60 -3.25z"/>
  <path d="M123.50 253.95 c-3.55 -2.15 -4.85 -5.20 -3.95 -9.40 1.25 -5.85 8.95 -8.40 15.05 -4.95 2.90 1.60 4 3.90 3.80 7.65 -0.30 5.50 -3.10 7.75 -9.50 7.75 -2.80 0 -4.05 -0.25 -5.40 -1.05z m10.60 -4.40 c1.50 -1.70 1.70 -2.80 0.85 -4.75 -0.80 -1.75 -3.35 -2.80 -6.70 -2.80 -2.45 0 -3 0.20 -4.30 1.45 -1.85 1.85 -1.90 3.95 -0.20 6 1.50 1.70 2.45 2 6.20 1.85 2.35 -0.15 2.90 -0.35 4.15 -1.75z"/>
  <path d="M467.15 239.15 c-1.55 -0.30 -3.55 -2.85 -3.95 -4.95 -0.45 -2.50 0.05 -5.60 1.15 -6.80 1.15 -1.30 3.55 -2.50 4.15 -2.15 0.95 0.55 0.55 3.20 -0.50 3.75 -1.60 0.85 -2.10 2.75 -1.25 4.75 0.50 1.30 1 1.75 1.90 1.75 1.65 0 2.20 -0.80 2.60 -3.75 0.60 -4 1.50 -5.70 3.55 -6.55 2.35 -1 4.35 -0.55 5.90 1.35 2.35 2.80 2.15 8.45 -0.35 10.05 -2.35 1.55 -2.80 1.45 -3.15 -0.40 -0.25 -1.45 -0.15 -1.90 0.75 -2.50 2.15 -1.55 0.85 -6.75 -1.35 -5.35 -0.80 0.50 -1.20 1.65 -1.85 5.80 -0.55 3.55 -3.95 5.80 -7.60 5z"/>
  <path d="M127.25 229.05 c-2.15 -1.30 -3.10 -2.55 -3.70 -4.85 -2.25 -8.40 9.85 -12.95 13.85 -5.20 1.40 2.80 1.40 4.30 -0.05 7 -1.95 3.70 -6.75 5.15 -10.10 3.05z"/>
  <path d="M466.15 222 c-5.15 -0.75 -8.15 -7.70 -5.35 -12.50 2.25 -3.95 9.75 -5.80 14.25 -3.45 2.40 1.20 3.90 4.05 3.95 7.35 0 5.75 -5.70 9.60 -12.85 8.60z m5.40 -4.05 c3.45 -1.20 5.05 -3.80 3.90 -6.55 -1.15 -2.85 -4.95 -3.65 -8.75 -1.95 -3.45 1.60 -4.65 4.45 -2.90 6.95 1.40 2.05 4.45 2.65 7.75 1.55z"/>
  <path d="M135.60 202.20 c-4.50 -2.25 -6.50 -6.25 -5.15 -10.35 0.85 -2.55 3.65 -4.85 5.80 -4.85 1.65 0 1.75 0.10 1.75 1.75 0 1.50 -0.15 1.75 -1.15 1.75 -1.70 0 -3.35 1.75 -3.35 3.55 0 2.35 0.85 3.45 3.65 4.75 4.30 2 7.85 1.35 8.55 -1.55 0.35 -1.35 -0.75 -4 -1.80 -4.35 -0.80 -0.30 0.80 -2.90 1.75 -2.90 1.05 0 2.80 2.15 3.35 4 0.90 3.15 -0.95 7.20 -4 8.75 -2.30 1.20 -6.40 0.95 -9.40 -0.55z"/>
  <path d="M456.70 201.25 c-4.55 -4.85 -2.40 -11.40 4.55 -13.80 3.50 -1.20 6.70 -1.05 8.70 0.40 3.70 2.75 4.75 7.65 2.25 10.60 -1.55 1.85 -1.95 1.90 -3 0.30 -0.70 -1.10 -0.70 -1.30 0 -2.35 1.65 -2.35 0.75 -5 -1.95 -5.90 -3.50 -1.15 -9.75 2.20 -9.75 5.20 0 1.85 2.05 3.80 4 3.80 1.40 0 1.50 0.15 1.50 1.75 0 1.75 0 1.75 -2.30 1.75 -2 0 -2.55 -0.25 -4 -1.75z"/>
  <path d="M450.25 186.50 l-0.80 -1.50 3.15 -1.45 c1.75 -0.75 5.40 -2.45 8.20 -3.75 2.80 -1.25 5.30 -2.30 5.55 -2.30 0.75 0 1.90 2.45 1.35 2.95 -0.45 0.50 -15.85 7.55 -16.40 7.55 -0.15 0 -0.65 -0.70 -1.05 -1.50z"/>
  <path d="M143.20 185 c-3.05 -1.75 -4.50 -3.40 -5.25 -6.10 -1.25 -4.75 3.10 -10.40 8 -10.40 3.75 0 9.25 3.40 10.55 6.50 1.50 3.60 -0.50 8.95 -4 10.75 -2.45 1.25 -6.35 0.95 -9.30 -0.75z m8.85 -3.45 c3.05 -3.10 1.30 -7.05 -4 -8.80 -2.70 -0.90 -4.15 -0.55 -5.75 1.20 -2.30 2.50 -0.70 6.20 3.45 8.10 2.90 1.35 4.55 1.20 6.30 -0.50z"/>
  <path d="M454.60 176.85 c-0.25 -0.35 -0.95 -1.55 -1.55 -2.70 -0.55 -1.15 -1.25 -2.20 -1.55 -2.40 -0.30 -0.15 -2 0.45 -3.75 1.40 l-3.30 1.75 -0.75 -1.20 c-0.45 -0.65 -0.70 -1.50 -0.55 -1.80 0.40 -1 15.85 -9.10 16.35 -8.60 0.20 0.25 1.55 2.65 3 5.30 2.50 4.75 2.55 4.85 1.50 5.40 -1.60 0.85 -2.30 0.35 -3.80 -2.60 -2.15 -4.25 -2.20 -4.30 -4.90 -2.30 -0.85 0.70 -0.85 0.85 0.65 3.45 1.85 3.35 1.90 3.65 0.35 4.35 -0.90 0.40 -1.35 0.40 -1.70 -0.05z"/>
  <path d="M153.15 166.70 c-3.95 -2.55 -7.15 -4.95 -7.15 -5.30 0 -0.35 0.35 -1.10 0.75 -1.65 0.75 -0.95 0.80 -0.95 2.40 0 0.85 0.50 3.70 2.35 6.30 4.05 2.60 1.75 4.90 3.05 5.15 2.90 0.25 -0.15 1.35 -1.75 2.45 -3.50 1.15 -1.75 2.20 -3.20 2.45 -3.20 0.20 0 0.85 0.40 1.45 0.90 l1.05 0.85 -3.15 4.85 c-1.70 2.65 -3.45 4.85 -3.85 4.85 -0.40 -0.05 -3.95 -2.15 -7.85 -4.75z"/>
  <path d="M439.75 167.20 c-0.45 -0.70 -0.65 -1.45 -0.40 -1.65 1.10 -0.95 15.05 -9.55 15.50 -9.55 0.40 0 1.65 2.05 1.65 2.70 0 0.35 -14.95 9.80 -15.40 9.80 -0.25 0 -0.85 -0.60 -1.35 -1.30z"/>
  <path d="M433.80 158.40 c-0.45 -0.60 -0.80 -1.30 -0.80 -1.45 0 -0.20 2.55 -2.20 5.65 -4.45 3.05 -2.30 5.80 -4.30 6 -4.50 0.25 -0.20 -0.15 -1.30 -0.90 -2.45 -1.15 -1.70 -1.25 -2.20 -0.75 -2.80 1.20 -1.50 2.30 -0.65 6.10 4.65 l3.85 5.35 -1.10 0.85 c-1.45 1.15 -1.40 1.15 -2.80 -0.85 -0.65 -0.95 -1.45 -1.75 -1.80 -1.75 -0.30 0 -3.20 1.90 -6.35 4.25 -3.20 2.35 -5.95 4.25 -6.05 4.25 -0.15 0 -0.65 -0.50 -1.05 -1.10z"/>
  <path d="M162.25 153.70 c-3.55 -2.90 -6.70 -5.45 -6.95 -5.70 -0.55 -0.55 7.25 -10.05 8.15 -9.90 0.40 0.10 0.90 0.50 1.20 0.95 0.40 0.65 0 1.50 -2.05 4.10 -1.45 1.80 -2.60 3.50 -2.60 3.75 0 0.30 0.65 1 1.45 1.55 l1.45 1.05 2.60 -3.25 c1.40 -1.80 2.75 -3.25 2.90 -3.25 0.20 0 0.80 0.35 1.35 0.80 1.10 0.80 1.15 0.65 -2.20 4.95 l-2.20 2.80 1.70 1.45 c0.95 0.80 1.85 1.45 2.05 1.50 0.20 0 1.65 -1.60 3.20 -3.50 2.85 -3.50 3.85 -4.05 4.85 -2.45 0.40 0.65 -0.30 1.80 -3.40 5.65 -2.10 2.65 -4.10 4.80 -4.45 4.80 -0.30 -0.05 -3.45 -2.40 -7.05 -5.30z"/>
  <path d="M426.60 149.25 l-1 -1.25 1.70 -5.40 c2.75 -8.60 2.90 -8.30 -1.90 -3.95 -2.35 2.10 -4.50 3.85 -4.80 3.85 -0.30 0 -0.85 -0.50 -1.15 -1.10 -0.55 -1.05 -0.25 -1.45 3.60 -5.05 2.30 -2.20 5.40 -5 6.85 -6.25 2.55 -2.15 2.65 -2.20 3.60 -1.35 1.35 1.20 1.30 1.55 -0.85 8.10 -1 3.10 -1.70 5.80 -1.50 6 0.20 0.20 1.55 -0.80 3 -2.15 5.30 -5.05 5.20 -5 6.35 -3.95 0.55 0.50 1 1.05 1 1.25 0 0.40 -12.80 12.15 -13.45 12.40 -0.25 0.10 -0.90 -0.45 -1.45 -1.15z"/>
  <path d="M177.70 143.55 c-3.40 -0.85 -7.35 -5 -8 -8.35 -0.70 -3.70 1.35 -7.65 4.85 -9.50 1.75 -0.90 4.45 -0.90 5.65 -0.05 0.90 0.65 0.90 0.75 0.10 2 -0.75 1.05 -1.15 1.25 -2.55 1 -2.30 -0.35 -4.75 1.95 -4.75 4.45 0 2.90 3.50 6.70 6.65 7.25 2 0.30 4.45 -1.50 5.25 -3.80 0.45 -1.20 0.35 -1.60 -0.45 -2.35 -0.95 -0.85 -1 -0.80 -2.35 0.45 l-1.40 1.35 -1.10 -1.15 -1.10 -1.15 2.75 -2.70 2.75 -2.75 2.60 2.65 c2.35 2.40 2.50 2.75 2.25 4.55 -0.70 5.25 -6.25 9.30 -11.15 8.10z"/>
  <path d="M411.15 133.85 c-2.50 -2.25 -4.60 -4.20 -4.60 -4.40 -0.05 -0.25 8.60 -10.20 11.20 -12.90 l1.15 -1.15 2.70 2.40 c1.45 1.35 3.65 3.30 4.85 4.35 2.05 1.85 2.10 1.95 1.25 2.90 -1.15 1.25 -1.80 1.20 -3.25 -0.35 -0.65 -0.70 -2.05 -2 -3.10 -2.80 l-1.90 -1.55 -1.25 1.15 c-1.35 1.30 -1.55 2.25 -0.50 2.85 0.40 0.20 1.75 1.40 3.05 2.55 2.25 2.10 2.30 2.25 1.45 3.15 -0.45 0.50 -1.05 0.95 -1.25 0.95 -0.20 0 -1.60 -1.10 -3.10 -2.50 -1.50 -1.35 -2.95 -2.50 -3.20 -2.50 -0.65 0 -3.15 2.70 -3.15 3.35 0 0.30 1.45 1.75 3.20 3.20 1.80 1.50 3.25 3.05 3.25 3.50 0.05 0.85 -0.90 1.95 -1.65 1.95 -0.30 -0.05 -2.60 -1.90 -5.15 -4.15z"/>
  <path d="M187.55 126.35 l-6.05 -7.10 1.30 -1.15 c0.75 -0.65 1.50 -1 1.70 -0.75 2.70 2.85 11.50 13.50 11.50 13.90 -0.05 0.30 -0.55 0.90 -1.20 1.35 l-1.20 0.90 -6.05 -7.15z"/>
  <path d="M401.80 126.05 c-0.85 -0.95 -0.70 -1.20 4.45 -8 2.90 -3.85 5.55 -7.15 5.80 -7.35 0.25 -0.15 1 0.20 1.70 0.70 l1.25 1 -2.80 3.70 c-1.55 2 -4.05 5.30 -5.55 7.30 -1.55 1.95 -3.05 3.60 -3.40 3.60 -0.30 0 -1 -0.45 -1.45 -0.95z"/>
  <path d="M197.70 126 c-1.85 -0.60 -5.50 -4.35 -6.50 -6.75 -1.05 -2.60 -0.90 -5.80 0.45 -7.80 1.40 -2.10 3.80 -3.75 6.15 -4.15 4.05 -0.80 9.35 3.60 10.80 8.85 0.55 2.05 0.50 2.60 -0.40 4.70 -1.65 4.05 -6.45 6.35 -10.50 5.15z m5.35 -3.85 c3.10 -1.85 2.80 -5.95 -0.65 -9.50 -1.95 -2 -3.85 -2.45 -5.85 -1.45 -2.90 1.50 -3.30 4.15 -1.25 7.65 1.30 2.30 3.75 4.15 5.35 4.15 0.55 0 1.60 -0.40 2.40 -0.85z"/>
  <path d="M393.20 120.30 c-1.90 -0.85 -3.95 -3.45 -4.45 -5.65 -1.05 -5.10 4.85 -12.65 9.95 -12.65 3.40 0.05 7.80 4 7.80 7.05 0 2.55 -0.35 2.90 -2.30 2.30 -1.40 -0.40 -1.70 -0.75 -1.50 -1.50 0.55 -2.10 -1.65 -4.35 -4.30 -4.35 -1.50 0 -5.05 3.90 -5.80 6.35 -0.75 2.60 -0.10 4.30 2 5.20 1.25 0.50 1.75 0.45 3.30 -0.25 1.75 -0.85 1.80 -0.85 2.70 0.30 1.20 1.55 1.15 1.65 -0.80 2.85 -1.90 1.20 -4.35 1.30 -6.60 0.35z"/>
  <path d="M220.05 113.80 c-0.55 -0.70 -8.05 -15.55 -8.05 -16 0 -0.65 8.05 -4.30 9.50 -4.30 6.35 0 11.70 10.70 7.70 15.45 -1.65 2 -8.50 5.65 -9.15 4.85z m6.55 -6.70 c0.85 -1 0.60 -3.45 -0.60 -5.75 -1.60 -3.05 -2.95 -4.35 -4.60 -4.35 -1.15 0 -3.95 1.05 -4.80 1.75 -0.10 0.10 1.10 2.65 2.65 5.70 l2.80 5.60 2 -1.15 c1.10 -0.60 2.25 -1.40 2.55 -1.80z"/>
  <path d="M371.50 108.20 c-3.70 -1.60 -5.45 -4.45 -4.75 -7.70 0.30 -1.40 0.35 -1.45 1.85 -0.85 1.25 0.50 1.55 0.95 1.65 2.30 0.30 3.75 6.25 5.05 6.25 1.35 0 -0.50 -1.30 -2.20 -3 -3.75 -2.75 -2.60 -3 -3 -3 -4.95 0 -4.45 4.40 -6.45 9 -4.10 2.55 1.30 3.50 2.75 3.50 5.35 0 2.30 -0.20 2.45 -2.20 1.65 -0.90 -0.30 -1.30 -0.85 -1.30 -1.65 0 -1.95 -2.80 -3.75 -4.70 -3.05 -1.40 0.55 -0.85 2.05 1.55 4.20 4.15 3.65 4.90 5.55 3.40 8.70 -1.45 3.05 -4.75 4.05 -8.25 2.50z"/>
  <path d="M232.95 98.15 c-1.75 -4.65 -3.20 -8.60 -3.20 -8.90 0 -0.45 10.45 -4.75 11.55 -4.75 0.55 0 1.45 2.40 1.10 2.75 -0.10 0.10 -2 0.85 -4.25 1.75 -2.30 0.85 -4.15 1.70 -4.15 1.80 0 0.15 0.30 1 0.70 1.95 l0.70 1.70 4.05 -1.55 c2.25 -0.85 4.15 -1.45 4.25 -1.35 0.15 0.10 0.35 0.80 0.55 1.50 0.30 1.25 0.15 1.40 -2.35 2.35 -1.45 0.55 -3.25 1.25 -3.95 1.50 l-1.35 0.55 0.80 2.25 c0.45 1.25 1 2.30 1.25 2.30 0.20 0 2.30 -0.75 4.65 -1.70 l4.25 -1.75 0.45 1.25 c0.30 0.70 0.50 1.40 0.50 1.60 0 0.20 -2.65 1.35 -5.85 2.60 -3.20 1.25 -6 2.30 -6.15 2.40 -0.15 0.05 -1.75 -3.65 -3.55 -8.25z"/>
  <path d="M353.25 100.85 c-2.95 -1.65 -4.25 -3.90 -4.25 -7.30 0 -4.80 3.25 -9.95 6.80 -10.85 3.50 -0.90 8.40 1.30 9.85 4.45 1.60 3.30 0.75 8.15 -2 11.75 -2.40 3.15 -6.80 4 -10.40 1.95z m6.55 -3.25 c1.70 -1.30 2.85 -4.10 2.90 -6.75 0.05 -2.05 -0.15 -2.60 -1.35 -3.65 -1.75 -1.50 -4.25 -1.55 -6 -0.20 -1.65 1.30 -3.05 5.50 -2.65 7.75 0.60 3.25 4.65 4.85 7.10 2.85z"/>
  <path d="M257 93.65 c-0.60 -2.70 -1.50 -6.70 -2 -8.90 -0.50 -2.20 -0.80 -4.15 -0.60 -4.30 0.40 -0.40 12.15 -3.05 12.35 -2.85 0.05 0.10 0.25 0.75 0.45 1.55 0.35 1.55 0.60 1.45 -4.90 2.60 l-3.90 0.85 0.25 1.75 c0.20 1 0.40 1.85 0.55 2 0.10 0.10 2 -0.15 4.25 -0.65 2.25 -0.50 4.15 -0.80 4.25 -0.65 0.10 0.10 0.30 0.80 0.50 1.50 0.30 1.30 0.20 1.35 -3.25 2.15 -1.95 0.45 -3.90 0.80 -4.30 0.80 -0.60 0 -0.65 0.45 -0.40 2.15 0.20 1.15 0.55 2.30 0.75 2.55 0.25 0.20 2.40 -0.05 4.95 -0.60 3.85 -0.85 4.55 -0.85 4.75 -0.25 0.85 2.20 0.50 2.40 -5.85 3.80 -3.35 0.75 -6.25 1.35 -6.45 1.35 -0.15 0 -0.80 -2.20 -1.40 -4.85z"/>
  <path d="M342.25 97.65 c-0.55 -0.15 -1.15 -0.40 -1.35 -0.55 -0.20 -0.20 0.45 -3.50 1.40 -7.35 3 -12.05 2.50 -10.85 4.35 -10.50 0.90 0.20 1.65 0.45 1.75 0.50 0.10 0.05 -0.65 3.35 -1.65 7.30 -2.65 10.60 -2.75 10.95 -3.15 10.90 -0.20 -0.05 -0.80 -0.15 -1.35 -0.30z"/>
  <path d="M326 94.30 c-1.50 -0.30 -2.70 -0.80 -2.70 -1.05 0.95 -6.50 2.90 -17.10 3.20 -17.45 0.55 -0.55 7.25 0.60 9.40 1.55 1 0.50 2.05 1.55 2.70 2.80 1.95 3.90 0.45 11.15 -2.90 13.80 -1.55 1.20 -5.10 1.35 -9.70 0.35z m7.60 -3.25 c1.45 -1.15 2.65 -5.75 2.15 -8.35 -0.35 -1.90 -1.90 -3 -4.70 -3.30 l-1.75 -0.15 -0.85 4.75 c-1.25 6.85 -1.25 7.40 0.45 7.65 2.80 0.40 3.50 0.35 4.70 -0.60z"/>
  <path d="M275.30 93.75 c-1.15 -0.90 -2.80 -3.25 -2.80 -4.10 0 -0.30 0.70 -0.70 1.50 -0.90 1.30 -0.30 1.75 -0.10 2.95 1.20 1.60 1.70 3.25 1.95 4.95 0.75 1.30 -0.90 1.45 -3 0.25 -3.65 -0.50 -0.25 -2.25 -0.60 -3.90 -0.80 -3.80 -0.50 -6.25 -2.60 -6.25 -5.40 0 -5.35 8.85 -7.70 12.15 -3.25 0.55 0.70 0.85 1.70 0.70 2.10 -0.45 1.15 -2.95 1 -4 -0.20 -1.55 -1.85 -5.70 -0.85 -5.30 1.25 0.20 1 1.50 1.50 4.95 2 3.40 0.45 5.35 1.80 6 4.20 0.70 2.60 -0.30 5.15 -2.60 6.55 -2 1.20 -7.10 1.35 -8.60 0.25z"/>
  <path d="M310.75 93.15 c-1.90 -0.40 -3.35 -1.35 -4.05 -2.75 -0.75 -1.45 -0.95 -7.95 -0.40 -13.35 l0.35 -3.05 1.70 0 1.70 0 -0.35 7 c-0.30 6.35 -0.25 7.10 0.55 8 0.95 1 3.45 1.35 4.65 0.60 0.90 -0.60 1.60 -3.40 1.60 -6.40 0 -1.40 0.15 -3.95 0.30 -5.65 l0.35 -3.05 1.65 0 c2 0 1.95 -0.45 1.20 8.95 -0.35 4.15 -0.75 6.60 -1.30 7.40 -1.35 2.05 -4.65 3.05 -7.95 2.30z"/>
  <path d="M294.45 92.40 c-0.05 -0.35 -0.20 -3.80 -0.40 -7.65 l-0.30 -7 -2.60 -0.15 c-2.55 -0.15 -2.65 -0.20 -2.65 -1.55 0 -1.30 0.20 -1.45 2.30 -1.75 1.30 -0.15 4.45 -0.30 7 -0.30 l4.70 0 0 1.50 c0 1.45 -0.05 1.50 -2.60 1.50 l-2.55 0 0.30 8 0.35 8 -1.75 0 c-1.05 0 -1.75 -0.25 -1.80 -0.60z"/>
 </g>
 <g fill="#010201">
  <path d="M216.85 370.95 c-2.15 -0.50 -4.45 -1.60 -5.50 -2.65 -1.25 -1.30 -2.45 -7.90 -2.25 -12.70 l0.15 -4.35 -3.75 -0.35 c-2.05 -0.20 -4.05 -0.50 -4.35 -0.65 -0.40 -0.15 -0.65 -1.15 -0.65 -2.65 0 -1.35 -0.15 -3.50 -0.30 -4.80 l-0.35 -2.30 -2.40 0 c-1.80 0 -2.70 -0.25 -3.45 -1 -1.70 -1.70 -1.30 -2.60 3.50 -7.75 2 -2.15 2.40 -2.90 2.65 -5.30 0.20 -1.50 0.10 -3.55 -0.15 -4.45 -0.30 -0.95 -0.50 -2.85 -0.50 -4.20 0 -2.30 -0.15 -2.60 -3.20 -5.80 -1.75 -1.90 -3.35 -3.85 -3.50 -4.35 -0.15 -0.50 -1.30 -1.40 -2.50 -2.05 -1.20 -0.65 -2.95 -1.95 -3.85 -2.90 -1.40 -1.45 -1.55 -1.85 -0.95 -2.20 0.40 -0.25 2.20 -1.45 4 -2.60 3.20 -2.10 3.25 -2.20 3.65 -4.90 0.75 -5.10 0.50 -4.75 4.45 -5.90 2 -0.55 4.95 -1.30 6.55 -1.60 2.70 -0.55 2.90 -0.70 2.60 -1.65 -0.15 -0.60 -0.45 -2.50 -0.60 -4.20 l-0.30 -3.15 1.75 0 c2.55 0 3.05 -0.90 2.65 -4.50 -0.30 -2.70 -0.20 -3.25 1 -5.30 0.70 -1.25 1.85 -2.50 2.45 -2.75 0.65 -0.30 1.90 -2 2.85 -3.85 1.60 -3.20 1.70 -3.65 1.95 -9.85 l0.25 -6.50 4 -2.10 c2.20 -1.15 5.05 -2.35 6.40 -2.65 l2.35 -0.60 0 -4.15 c0 -3.05 -0.20 -4.30 -0.75 -4.75 -0.40 -0.35 -1.60 -2 -2.60 -3.70 -1 -1.65 -2.55 -3.85 -3.45 -4.85 -1.90 -2.20 -2.90 -6.70 -2.60 -12.20 l0.15 -3.50 2.50 -0.35 c2.30 -0.35 2.60 -0.25 3.50 0.85 0.90 1.05 1.45 1.25 3.75 1.20 5.40 -0.15 5.25 0 5.30 -5.70 0 -2.75 0.20 -6.05 0.40 -7.40 0.30 -2.05 0.50 -2.35 1.55 -2.35 0.65 0 1.90 -0.60 2.75 -1.35 1.50 -1.20 1.60 -1.50 1.40 -3.70 -0.15 -1.60 -0.70 -3 -1.60 -4.20 -2.40 -3.10 -3.75 -6.75 -4.30 -11.50 -0.25 -2.50 -0.70 -5.30 -1 -6.25 -0.25 -0.95 -0.50 -1.90 -0.50 -2.10 0 -1.35 5.80 1.10 7.50 3.15 l1.25 1.50 4.25 -2 c4.55 -2.15 6.55 -2.45 12.40 -1.75 l3.10 0.35 0 -2.80 c0 -2.45 -0.40 -3.60 -3.50 -9.70 l-3.45 -6.90 1.60 -1.65 c0.85 -0.90 2.85 -2.45 4.40 -3.40 2.30 -1.40 3.35 -1.70 5.60 -1.70 2.45 0 3.05 0.25 5.65 2.15 1.65 1.20 3.60 3 4.40 4.05 0.95 1.30 2.55 2.45 4.75 3.45 1.80 0.85 4.15 2.10 5.15 2.75 1.70 1.10 2.15 1.20 4.75 0.80 l2.90 -0.45 0.25 -2.50 c0.15 -1.35 0.50 -2.45 0.75 -2.45 3.45 0.50 8.55 1.85 8.85 2.35 0.20 0.30 0.40 1 0.40 1.50 0 0.70 0.45 0.85 2.70 0.85 l2.65 0 2.35 4.85 c1.30 2.65 2.60 6 2.90 7.35 0.30 1.40 1.15 4.05 1.90 5.95 l1.40 3.40 -0.95 2.80 c-0.50 1.55 -0.95 4.10 -0.95 5.70 l0 2.90 3.80 0.15 c4.95 0.20 5.30 0.60 4 5.25 -1.75 6.40 -2.35 10.80 -1.65 11.55 0.55 0.50 1.10 0.10 3.20 -2.30 2.05 -2.35 4 -3.75 9.90 -7.15 4.05 -2.30 7.50 -4.50 7.65 -4.85 0.10 -0.40 -0.05 -2.20 -0.35 -4 -0.55 -3 -0.50 -3.60 0.30 -5.75 1.55 -3.90 5.75 -6.25 12.85 -7.10 2.65 -0.35 2.80 -0.30 3.25 0.85 0.25 0.65 1.05 1.95 1.80 2.85 l1.40 1.60 1.65 -1.60 1.70 -1.65 0 3.05 c0 1.70 0.20 3.20 0.50 3.40 0.90 0.55 2.20 -2.40 2.40 -5.60 l0.20 -3.20 3.45 -1.70 c1.90 -0.95 3.55 -1.75 3.70 -1.75 0.15 0 0.25 2.45 0.25 5.40 l0 5.40 -1.95 1.90 -1.90 1.85 1.20 2.35 1.25 2.35 -1 2.30 c-1 2.30 -1.05 2.35 -4.30 3 -1.80 0.35 -3.30 0.80 -3.30 1 0 0.90 2.20 5.45 2.65 5.45 1.10 0 9.65 -2.15 10.20 -2.60 0.30 -0.25 0.70 -2.05 0.85 -4.05 0.70 -7.75 0.85 -8.35 1.85 -8.35 0.85 0 2.50 1.85 5.70 6.25 l1.05 1.40 4.70 -1.05 c2.60 -0.60 5.05 -1.10 5.45 -1.10 0.35 0 2.10 1 3.80 2.25 3.10 2.20 3.10 2.20 3.45 5.20 l0.35 2.95 3.10 2.05 c1.95 1.25 3.50 2.75 4.25 4.05 1.10 1.95 1.10 2.05 0.40 5.50 -0.85 4 -2.20 6.50 -4.30 8 -1.25 0.90 -1.40 1.40 -1.75 4.80 -0.30 3.55 -0.50 4 -2.30 5.95 -1.05 1.15 -1.95 2.35 -1.95 2.65 0 0.30 0.90 1.85 2 3.40 l2 2.85 0 5.30 c0 2.90 -0.20 6.60 -0.50 8.25 -0.45 2.85 -0.40 2.95 1.35 5.70 l1.80 2.85 -0.35 4.50 c-0.45 6.10 -1.20 17.45 -1.75 26.35 -0.25 4 -0.70 7.80 -1 8.35 -0.35 0.55 -1.30 1.40 -2.20 1.85 -0.90 0.45 -2.15 1.35 -2.85 2 -1.65 1.55 -4.60 2 -10.35 1.70 -5.45 -0.30 -6.30 -0.90 -8.95 -6.10 -2.15 -4.25 -3.10 -4.90 -7 -4.90 l-3.10 0 -0.85 -2.10 c-0.70 -1.85 -0.80 -3.25 -0.50 -10.15 0.20 -4.80 0.60 -8.40 0.95 -9 0.40 -0.65 0.60 -2.70 0.50 -5.70 l-0.10 -4.65 -2.05 -2.10 c-2 -2.05 -2.05 -2.20 -2.05 -5.45 l0 -3.40 -2.35 0.30 c-1.35 0.20 -2.80 0.45 -3.25 0.60 -0.50 0.10 -0.90 0.05 -0.90 -0.15 0 -0.25 -0.35 -3.20 -0.80 -6.65 l-0.80 -6.25 -2.15 -1.90 c-1.90 -1.65 -2.15 -2.15 -2.40 -4.65 -0.30 -2.95 -1.40 -5.25 -2.55 -5.25 -0.70 0 -1.30 2.10 -1.30 4.75 0 1.40 -0.40 1.95 -2.65 3.70 -1.90 1.45 -3.50 2.20 -5.35 2.55 -1.50 0.30 -2.90 0.80 -3.10 1.15 -0.20 0.30 -0.40 1.65 -0.40 2.95 0 2.10 -0.20 2.45 -2 3.90 -1.10 0.90 -3.30 1.95 -4.85 2.35 -1.60 0.40 -3.50 1.20 -4.25 1.75 -1.30 0.90 -1.40 1.25 -1.40 4.15 0 2.95 -0.10 3.25 -1.60 4.40 -1.55 1.25 -1.55 1.25 -0.80 3.15 0.40 1.10 0.90 2.80 1.10 3.85 0.25 1.40 1.15 2.65 3.60 5.10 l3.25 3.25 -0.15 13.40 -0.15 13.35 -1.35 2.25 c-0.75 1.25 -2.45 3.45 -3.75 4.85 -2.35 2.55 -2.50 2.65 -6.15 3.15 -6 0.85 -6 0.85 -6 5 0 3.05 -0.30 4.30 -2.05 8.55 -2 4.75 -2.20 5.05 -5.40 7.40 -5.45 4 -5.05 3.85 -8.15 2.60 -2.10 -0.85 -2.95 -1.50 -3.55 -2.80 -0.85 -1.75 -1.60 -2.05 -5.85 -2.35 -1.65 -0.15 -1.75 -0.25 -2.20 -2.55 l-0.50 -2.40 -2 0.15 c-1.85 0.15 -2.05 0.30 -2.30 1.65 -0.20 1.10 -0.95 1.95 -3.05 3.35 -2.60 1.70 -2.85 2.05 -3.15 4.15 -0.30 1.90 -1 3 -4.15 6.65 l-3.80 4.35 -2.80 0.05 c-1.80 0 -4.30 0.55 -7.05 1.55 -2.35 0.85 -4.95 1.65 -5.80 1.80 -1.45 0.30 -1.65 0.15 -2.30 -1.60 -0.65 -1.65 -1.05 -1.95 -2.70 -2.20 -1.05 -0.20 -3.15 -0.35 -4.55 -0.35 l-2.65 0 0 4.65 c0 4.20 -0.15 4.85 -1.35 6.75 -1.05 1.55 -1.95 2.30 -3.65 2.90 -1.25 0.40 -3.15 1.20 -4.25 1.75 -2.30 1.15 -10.20 7.55 -12.75 10.40 -1.95 2.15 -3.40 2.60 -6.15 2z m5.75 -4.60 c5.75 -5.70 12.70 -10.70 15.45 -11.15 1.15 -0.20 2.40 -0.90 3.30 -1.80 1.30 -1.40 1.40 -1.75 1.65 -7.05 l0.25 -5.55 1.75 -0.40 c1.85 -0.45 4.75 -0.20 8.60 0.65 1.90 0.45 2.40 0.80 2.85 2 0.60 1.75 0.90 1.75 7.95 -0.85 3.20 -1.20 5 -1.60 5.95 -1.40 1.20 0.30 1.70 0 4.50 -3.10 2.95 -3.20 3.40 -4.10 4.35 -8.20 0.15 -0.85 1.15 -1.80 3 -2.90 2.40 -1.40 2.75 -1.85 3.05 -3.65 0.20 -1.10 0.65 -2.15 0.95 -2.25 0.35 -0.15 2.05 -0.05 3.85 0.15 l3.20 0.40 0.40 2.40 0.45 2.35 2.15 0 c3.05 0 4.50 0.70 5.25 2.50 0.40 0.95 1.40 1.95 2.50 2.50 l1.85 0.95 3.70 -2.65 c3.65 -2.65 3.70 -2.75 5.60 -7.45 1.60 -4.10 1.85 -5.30 1.85 -8.80 0 -2.20 0.20 -4.10 0.45 -4.25 0.20 -0.15 2.65 -0.65 5.35 -1.05 4.80 -0.80 5 -0.85 6.80 -2.90 1.05 -1.15 2.50 -3 3.25 -4.05 l1.40 -1.95 0.20 -12.60 0.15 -12.55 -1.35 -1.60 c-0.75 -0.90 -2 -1.95 -2.75 -2.35 -1.45 -0.75 -2.10 -2 -3 -5.75 -0.30 -1.25 -0.90 -3.10 -1.35 -4.15 l-0.85 -1.90 1.85 -1.70 c1.75 -1.60 1.85 -1.90 1.85 -4.70 0 -2.40 0.20 -3.20 1 -3.95 1.15 -1.05 3.70 -2.20 6.75 -3.05 3.05 -0.80 4.75 -2.65 4.75 -5.20 0 -3.80 0.30 -4.25 3.15 -4.60 2.85 -0.40 4.95 -1.25 6.80 -2.80 1 -0.80 1.30 -1.70 1.65 -4.30 0.40 -3.60 0.85 -4.15 3.20 -4.15 2.55 0 4.70 3.35 4.70 7.25 0 1.30 0.45 2.05 2.25 3.55 l2.20 1.95 0.60 5.30 c0.30 2.95 0.75 5.60 0.90 5.90 0.25 0.35 1.25 0.40 3.25 0.05 1.65 -0.25 3.15 -0.35 3.35 -0.20 0.25 0.15 0.45 2.10 0.45 4.40 l0 4.10 2.05 1.95 c2.05 2 2.05 2 1.75 5 -0.15 1.65 -0.05 3.85 0.25 4.90 0.40 1.60 0.35 2.10 -0.45 3.25 -0.80 1.10 -1 2.60 -1.30 8.65 -0.20 4.80 -0.10 7.85 0.25 8.90 0.50 1.45 0.70 1.55 3.05 1.55 3.75 0 5.80 1.40 7.65 5.10 0.85 1.70 2.05 3.70 2.65 4.50 1.15 1.40 1.25 1.40 6.60 1.40 4.95 0 5.55 -0.10 6.85 -1.15 0.75 -0.65 2.10 -1.60 3 -2.10 0.90 -0.55 1.75 -1.25 1.85 -1.60 0.15 -0.30 0.40 -2.90 0.55 -5.75 0.15 -2.85 0.50 -7.85 0.75 -11.15 0.25 -3.30 0.75 -9.25 1.05 -13.20 l0.50 -7.15 -1.85 -2.80 -1.85 -2.80 0.60 -4 c0.30 -2.25 0.55 -5.85 0.55 -8.05 0 -3.70 -0.10 -4.20 -1.65 -6.50 -3.85 -5.70 -3.75 -4.80 -0.95 -7.80 2.45 -2.65 2.50 -2.75 2.85 -6.80 0.35 -4.05 0.35 -4.10 2.25 -5.35 1.45 -0.95 2.15 -1.95 2.95 -4.05 1.95 -5.20 1.20 -7.35 -3.70 -10.60 -3.20 -2.15 -3.75 -3.10 -3.75 -6.65 0 -1.10 -0.55 -1.75 -2.65 -3.20 l-2.60 -1.80 -5.15 1.25 c-2.85 0.70 -5.35 1.25 -5.60 1.25 -0.25 0 -1.40 -1.35 -2.50 -3 -1.15 -1.65 -2.25 -2.90 -2.55 -2.75 -0.25 0.20 -0.45 1.95 -0.45 4 0 5.15 -0.80 6 -7 7.55 -6.15 1.50 -7.75 1.55 -8.75 0.05 -0.80 -1.25 -2.75 -6.60 -2.75 -7.65 0 -0.35 1.55 -0.95 3.80 -1.45 3.15 -0.70 3.85 -1.05 4.35 -2.10 0.50 -1.10 0.35 -1.65 -0.80 -3.80 l-1.35 -2.55 2.25 -2.30 c2.20 -2.20 2.25 -2.40 2.25 -5.40 0 -3.35 -0.40 -3.70 -2.40 -2.30 -0.85 0.60 -1.10 1.25 -1.10 2.95 0 2.70 -2.30 7.75 -3.55 7.75 -1.25 0 -3.45 -1.95 -3.45 -3.10 0 -0.85 -0.10 -0.90 -0.75 -0.40 -0.95 0.80 -1.55 0.30 -4 -3.20 l-1.85 -2.65 -3.40 0.65 c-5.35 1 -7.60 2.50 -8.75 5.65 -0.65 1.85 -0.65 2.45 0.05 5.55 0.45 1.95 0.70 3.80 0.55 4.15 -0.10 0.30 -3.75 2.65 -8.10 5.10 -6.75 3.85 -8.30 4.95 -10.70 7.75 -1.55 1.80 -3 3.35 -3.25 3.50 -0.25 0.10 -1.20 -0.35 -2.15 -1 l-1.70 -1.25 0.30 -3.40 c0.20 -1.85 0.85 -5.20 1.55 -7.45 0.65 -2.25 1.20 -4.15 1.20 -4.20 0 -0.10 -1.95 -0.25 -4.35 -0.30 l-4.40 -0.15 0.15 -4.50 c0.10 -2.45 0.50 -5.55 0.90 -6.85 0.70 -2.20 0.70 -2.45 -0.50 -5.30 -0.65 -1.70 -1.45 -4.25 -1.75 -5.70 -0.35 -1.45 -1.50 -4.50 -2.65 -6.80 l-2.05 -4.10 -2.45 0 c-2.25 0 -2.50 -0.10 -2.95 -1.45 -0.60 -1.65 -0.90 -1.85 -4.15 -2.30 l-2.30 -0.35 0 1.75 c0 0.95 -0.30 1.95 -0.65 2.25 -0.35 0.30 -2.30 0.70 -4.35 0.85 -3.65 0.35 -3.80 0.30 -6.70 -1.40 -1.60 -1 -4.05 -2.30 -5.50 -2.85 -1.70 -0.75 -3 -1.70 -3.95 -3.05 -2.20 -3.05 -6.40 -5.95 -8.65 -5.95 -2 0 -5.50 1.75 -7.80 3.90 l-1.35 1.25 3.20 6.25 c3.05 5.85 3.25 6.45 3.25 9.55 0 1.80 -0.15 3.85 -0.35 4.50 -0.35 1.25 0.55 1.25 -9 0.25 -2.45 -0.25 -3.35 -0.10 -5.85 1 -1.65 0.75 -3.75 1.90 -4.60 2.55 -0.90 0.70 -1.85 1.25 -2.15 1.25 -0.25 0 -1.20 -1 -2.10 -2.20 -1.45 -2.05 -2.80 -3.10 -3.30 -2.65 -0.10 0.15 0.05 2.30 0.40 4.85 0.60 5.15 1.70 8.15 4.10 11.15 1.25 1.60 1.65 2.70 1.90 5.05 0.30 3 0.25 3.10 -1.45 4.90 -0.95 1 -2.25 1.95 -2.85 2.10 -1.35 0.35 -1.60 1.15 -2 6.80 -0.25 2.75 -0.15 4.75 0.20 5.70 0.95 2.35 -0.15 3 -5.85 3.40 -4.75 0.30 -4.90 0.30 -6 -0.90 -0.70 -0.80 -1.55 -1.20 -2.25 -1.10 -0.95 0.15 -1.10 0.50 -1.25 2.65 -0.25 3.70 0.85 8.15 2.40 9.95 0.75 0.85 2.10 2.80 3 4.30 0.90 1.50 2.15 3.30 2.80 4 1 1.10 1.15 1.80 1.25 6.30 0.05 2.80 -0.05 5.35 -0.25 5.60 -0.20 0.30 -1.25 0.70 -2.45 0.85 -1.15 0.20 -3.90 1.25 -6.10 2.40 l-4 2.10 -0.25 6.25 c-0.25 6 -0.35 6.40 -2.10 9.75 -1.10 2.15 -2.35 3.80 -3.15 4.25 -2.15 1.15 -2.95 3.25 -2.80 7.40 0.10 3.25 0 3.75 -1.05 4.60 -0.65 0.55 -1.55 0.95 -2 1 -0.45 0 -0.95 0.20 -1.10 0.40 -0.20 0.35 0.55 4.50 1.25 7.05 0.15 0.55 -0.50 0.85 -2.30 1.15 -4.55 0.75 -9.50 2 -10.60 2.70 -0.85 0.55 -1.15 1.35 -1.40 3.90 l-0.35 3.25 -3.20 2.10 c-1.75 1.15 -3.20 2.20 -3.20 2.40 0 0.50 2.60 2.35 3.90 2.75 0.60 0.20 1.85 1.55 2.80 2.95 0.90 1.45 2.70 3.60 4 4.85 2.15 2.10 2.30 2.35 2.30 4.85 0 1.45 0.25 3.60 0.60 4.80 0.40 1.65 0.45 3.05 0 5.55 -0.50 3.05 -0.75 3.60 -3.60 6.65 -1.65 1.85 -2.95 3.55 -2.85 3.85 0.10 0.30 1.55 0.60 3.25 0.70 l3.05 0.15 0.25 2.60 c0.20 1.45 0.35 3.60 0.45 4.85 0.10 2.45 -0.10 2.35 6.55 3.25 l2.45 0.35 -0.30 5.20 c-0.25 5.40 0.50 10.55 1.80 12.10 0.85 1.10 3.35 2.05 5.20 2.10 1.30 0 2.15 -0.50 4.25 -2.65z"/>
 </g>
</svg>